<?xml version="1.0" standalone="no"?>
<!DOCTYPE svg PUBLIC "-//W3C//DTD SVG 20010904//EN"
 "http://www.w3.org/TR/2001/REC-SVG-20010904/DTD/svg10.dtd">
<svg version="1.0" xmlns="http://www.w3.org/2000/svg"
 width="225.000000pt" height="224.000000pt" viewBox="0 0 225.000000 224.000000"
 preserveAspectRatio="xMidYMid meet">

<g transform="translate(0.000000,224.000000) scale(0.100000,-0.100000)"
fill="#000000" stroke="none">
<path d="M492 2147 c-12 -23 -47 -70 -76 -104 -62 -71 -79 -115 -94 -248 -16
-133 2 -458 26 -488 7 -8 14 -40 16 -72 3 -39 11 -67 26 -87 12 -16 28 -54 36
-85 8 -31 25 -68 38 -83 13 -16 26 -46 30 -68 4 -28 19 -54 46 -83 22 -24 40
-49 40 -56 0 -12 54 -77 153 -183 51 -55 118 -113 172 -149 28 -19 62 -45 77
-59 15 -13 52 -35 84 -48 l57 -23 56 30 c121 64 278 198 414 353 31 36 57 72
57 81 0 8 14 27 31 42 34 31 59 72 59 99 0 10 13 38 29 63 16 25 35 66 41 91
7 25 21 57 32 73 11 15 23 53 28 85 4 31 13 70 19 85 6 16 14 52 17 80 3 29
10 70 16 91 5 22 10 117 11 210 1 204 -12 251 -97 356 -29 36 -62 81 -74 101
l-22 37 -73 -26 c-58 -20 -95 -26 -192 -29 -107 -4 -130 -1 -210 22 -49 15
-101 27 -115 28 -14 0 -72 -12 -129 -28 -96 -25 -114 -27 -230 -22 -114 5
-183 18 -261 51 -11 4 -22 -7 -38 -37z m633 -27 c0 -18 -70 -54 -90 -46 -24 9
-17 34 13 51 33 18 77 16 77 -5z m129 -10 c18 -18 19 -22 6 -30 -30 -18 -100
15 -100 48 0 21 68 8 94 -18z m-596 -6 c26 -17 28 -29 6 -38 -23 -9 -94 12
-101 31 -13 33 45 38 95 7z m1062 0 c0 -19 -65 -47 -91 -39 -25 8 -24 20 3 39
30 21 88 21 88 0z m-732 -22 c5 -17 -62 -44 -93 -36 -29 7 -33 28 -7 43 23 14
94 9 100 -7z m406 8 c31 -11 34 -36 6 -43 -24 -6 -87 9 -95 23 -17 28 37 40
89 20z m-579 -13 c26 -20 10 -37 -34 -37 -41 0 -78 21 -67 38 10 16 78 15 101
-1z m755 3 c24 -16 -16 -40 -66 -40 -51 0 -63 13 -32 34 25 18 75 21 98 6z
m-1050 -28 c0 -32 -50 -91 -77 -92 -22 0 -14 47 13 79 29 34 64 42 64 13z
m707 -18 c126 -38 294 -39 414 -3 40 13 43 12 58 -11 8 -14 32 -42 53 -64 21
-21 38 -40 38 -42 0 -2 -11 -11 -25 -20 -23 -15 -26 -14 -57 9 -49 37 -87 53
-150 67 -64 13 -135 3 -198 -29 -35 -17 -35 -17 -95 13 -53 27 -70 31 -145 31
-76 0 -92 -3 -152 -33 l-66 -32 -44 22 c-86 45 -249 34 -326 -22 -35 -25 -42
-27 -52 -14 -10 11 -5 21 28 53 22 22 43 49 47 61 6 18 12 21 33 16 208 -45
339 -46 458 -3 38 14 75 25 81 26 7 1 52 -11 100 -25z m569 10 c24 -16 54 -62
54 -84 0 -22 -40 -8 -69 25 -30 35 -41 75 -21 75 6 0 22 -7 36 -16z m-555 -99
c64 -22 140 -95 98 -95 -5 0 -7 5 -4 10 3 6 0 10 -8 10 -8 0 -18 -10 -22 -22
-7 -22 -7 -22 -12 -3 -3 10 0 21 6 23 15 5 14 33 -1 31 -7 -1 -31 6 -53 16
-22 10 -72 20 -110 23 l-71 4 1 -56 c0 -30 -4 -56 -10 -56 -5 0 -10 23 -10 50
0 57 -6 60 -67 29 -27 -14 -44 -17 -50 -11 -12 12 50 47 109 62 49 12 146 5
204 -15z m381 -12 c26 -9 60 -27 75 -39 28 -22 28 -22 9 -43 -23 -25 -36 -27
-36 -5 0 11 6 14 18 10 9 -3 4 5 -13 19 -41 34 -108 55 -174 55 l-56 0 3 -55
c3 -35 0 -55 -7 -55 -7 0 -11 21 -11 50 0 54 -6 58 -49 35 -27 -13 -41 -11
-41 6 0 8 75 34 120 42 38 7 109 -2 162 -20z m-797 4 c46 -18 71 -35 63 -42
-4 -4 -28 1 -55 11 -68 27 -183 25 -245 -3 -37 -17 -46 -26 -41 -39 5 -14 3
-14 -15 2 -19 16 -20 20 -8 32 43 44 228 67 301 39z m-405 -49 c0 -32 -29 -90
-42 -86 -21 7 -22 86 -2 116 16 24 17 25 30 7 8 -10 14 -27 14 -37z m680 -13
c0 -30 -4 -55 -10 -55 -5 0 -10 25 -10 55 0 30 5 55 10 55 6 0 10 -25 10 -55z
m40 0 c0 -30 -4 -55 -10 -55 -5 0 -10 25 -10 55 0 30 5 55 10 55 6 0 10 -25
10 -55z m30 0 c0 -30 -4 -55 -10 -55 -5 0 -10 25 -10 55 0 30 5 55 10 55 6 0
10 -25 10 -55z m-475 -5 c0 -26 -5 -45 -12 -47 -9 -3 -13 10 -13 47 0 37 4 50
13 48 7 -3 12 -22 12 -48z m35 0 c0 -27 -4 -50 -10 -50 -5 0 -10 23 -10 50 0
28 5 50 10 50 6 0 10 -22 10 -50z m33 0 c0 -24 -5 -46 -11 -48 -8 -2 -12 13
-12 48 0 35 4 50 12 48 6 -2 11 -24 11 -48z m267 0 c0 -27 -4 -50 -10 -50 -5
0 -10 23 -10 50 0 28 5 50 10 50 6 0 10 -22 10 -50z m180 0 c0 -27 -4 -50 -10
-50 -5 0 -10 23 -10 50 0 28 5 50 10 50 6 0 10 -22 10 -50z m278 -5 c-3 -30
-1 -55 4 -55 4 0 8 25 8 55 0 33 4 55 11 55 7 0 10 -19 7 -53 l-3 -54 55 3
c30 2 60 3 66 3 6 1 9 14 6 31 -3 18 0 30 7 30 17 0 13 -56 -5 -74 -14 -14
-75 -16 -525 -16 -333 0 -509 3 -509 10 0 6 128 10 365 10 342 0 364 1 359 18
-5 16 -5 16 6 0 14 -23 29 -23 24 0 -3 9 0 28 5 42 l11 25 -2 -25 c-2 -40 1
-60 10 -60 5 0 8 19 8 43 -1 23 4 42 9 42 6 0 10 -19 9 -42 0 -40 2 -43 26
-43 26 0 27 1 22 55 -4 47 -2 55 13 55 15 0 17 -8 13 -55z m72 9 c0 -59 -24
-55 -27 4 -1 30 3 42 13 42 10 0 14 -13 14 -46z m-900 -10 c0 -59 -24 -55 -28
4 -2 33 0 42 12 42 12 0 16 -11 16 -46z m140 1 c0 -25 -4 -45 -10 -45 -5 0
-10 20 -10 45 0 25 5 45 10 45 6 0 10 -20 10 -45z m440 10 c0 -19 0 -38 1 -42
0 -4 -4 -9 -10 -11 -7 -2 -11 14 -11 42 0 25 5 46 10 46 6 0 10 -16 10 -35z
m350 -5 c0 -22 -4 -40 -10 -40 -5 0 -10 18 -10 40 0 22 5 40 10 40 6 0 10 -18
10 -40z m308 6 c15 -31 7 -86 -13 -86 -29 0 -52 67 -35 101 14 25 31 20 48
-15z m-1278 -16 c0 -22 -4 -40 -10 -40 -5 0 -10 18 -10 40 0 22 5 40 10 40 6
0 10 -18 10 -40z m215 0 c0 -18 -6 -35 -12 -37 -9 -3 -13 8 -13 37 0 29 4 40
13 38 6 -3 12 -20 12 -38z m163 3 c-4 -52 -28 -56 -28 -4 0 30 4 41 16 41 11
0 14 -9 12 -37z m274 5 c-15 -15 -24 -6 -16 16 5 12 10 14 17 7 8 -8 8 -14 -1
-23z m353 -6 c0 -46 -19 -44 -23 2 -3 28 0 37 10 34 7 -3 13 -19 13 -36z
m-1097 -29 c70 -59 325 -266 329 -268 2 -1 -6 -20 -17 -44 -12 -23 -24 -71
-27 -106 -4 -46 -10 -65 -20 -65 -8 0 -27 -7 -43 -15 -16 -8 -64 -19 -107 -24
-44 -4 -101 -18 -128 -30 -28 -13 -52 -18 -57 -13 -5 5 -11 38 -14 73 -2 35
-9 75 -14 89 -5 14 -10 48 -10 75 0 242 2 284 14 326 8 26 12 50 9 53 -4 3 -1
6 4 6 6 0 42 -26 81 -57z m62 21 c0 -31 -2 -35 -15 -24 -12 10 -14 30 -6 58 1
1 6 2 11 2 6 0 10 -16 10 -36z m275 27 c3 -5 1 -12 -5 -16 -5 -3 -10 1 -10 9
0 18 6 21 15 7z m55 -1 c0 -5 -6 -10 -14 -10 -9 0 -13 -9 -12 -25 2 -13 -1
-22 -5 -19 -13 8 -11 38 3 52 15 15 28 16 28 2z m40 -6 c0 -8 -5 -12 -10 -9
-6 4 -8 11 -5 16 9 14 15 11 15 -7z m864 -212 c-2 -168 -5 -213 -18 -237 -9
-16 -16 -41 -17 -55 0 -18 -16 -37 -52 -66 -40 -31 -51 -46 -50 -65 3 -22 -7
-28 -112 -71 l-115 -47 -27 25 c-14 13 -38 24 -54 24 l-28 0 34 56 c60 100 67
193 23 296 -11 27 -19 50 -17 52 2 2 96 74 208 160 144 109 208 153 215 146 7
-7 10 -84 10 -218z m-958 161 c-10 -10 -19 5 -10 18 6 11 8 11 12 0 2 -7 1
-15 -2 -18z m94 6 c0 -5 -4 -9 -10 -9 -5 0 -10 7 -10 16 0 8 5 12 10 9 6 -3
10 -10 10 -16z m316 -6 c-10 -10 -19 5 -10 18 6 11 8 11 12 0 2 -7 1 -15 -2
-18z m334 -47 c0 -2 -18 -16 -40 -31 l-40 -27 -37 18 c-24 11 -59 18 -96 18
-49 -1 -65 -6 -104 -33 -43 -31 -47 -32 -95 -22 -64 14 -114 13 -160 -3 -35
-12 -38 -12 -60 11 -34 36 -119 58 -175 44 -25 -7 -55 -18 -66 -26 -20 -12
-25 -10 -61 21 l-39 34 486 0 c268 0 487 -2 487 -4z m-1230 -25 c13 -25 13
-77 -1 -102 -24 -47 -61 39 -39 92 14 34 25 37 40 10z m1524 -33 c11 -31 0
-77 -20 -85 -20 -8 -25 -1 -31 46 -9 65 31 96 51 39z m-979 -32 c19 -8 35 -17
35 -18 0 -2 -20 -21 -45 -42 l-46 -37 -52 42 c-28 24 -54 45 -57 47 -2 2 2 7
10 12 23 15 117 12 155 -4z m545 4 c8 -5 12 -11 10 -13 -3 -2 -26 -20 -51 -40
-25 -20 -50 -37 -55 -37 -12 1 -88 69 -83 75 23 23 150 34 179 15z m-330 -28
c0 -41 -51 -57 -70 -23 -17 33 -11 41 30 41 32 0 40 -4 40 -18z m100 -7 c26
-14 28 -18 18 -35 -15 -23 -18 -23 -52 -10 -19 7 -26 17 -26 35 0 29 17 32 60
10z m-215 -26 c5 -14 1 -25 -12 -34 -16 -12 -21 -11 -38 6 -20 20 -20 20 -1
35 27 20 44 18 51 -7z m-630 -70 c8 -37 -3 -89 -19 -89 -30 0 -49 103 -24 128
16 16 35 -1 43 -39z m935 36 c10 -13 9 -19 -5 -35 -16 -18 -21 -19 -33 -7 -11
12 -12 18 0 36 15 25 21 26 38 6z m571 -30 c9 -33 -14 -99 -33 -93 -23 8 -30
54 -14 93 18 42 36 42 47 0z m-957 6 c14 -15 14 -20 3 -30 -11 -8 -18 -7 -31
8 -10 11 -15 25 -11 30 9 16 20 14 39 -8z m216 -41 c0 -60 0 -60 -29 -60 -16
0 -36 -3 -45 -6 -13 -5 -16 1 -16 31 0 27 8 44 29 66 47 47 61 39 61 -31z
m226 -22 c13 -29 19 -65 19 -113 0 -60 -5 -81 -30 -131 -31 -60 -50 -72 -68
-43 -8 12 -3 30 16 70 31 61 36 138 13 193 -12 30 -12 36 2 50 23 23 27 21 48
-26z m-471 -13 c-3 -11 -9 -48 -12 -82 -5 -54 -2 -69 21 -117 22 -45 25 -59
16 -76 -6 -12 -16 -20 -22 -18 -23 8 -69 108 -75 162 -6 55 9 140 29 163 16
19 51 -6 43 -32z m130 -53 c6 -4 10 -27 10 -50 l0 -44 -35 6 c-22 3 -46 17
-62 36 -43 47 -37 60 25 60 28 0 57 -4 62 -8z m-640 -32 c19 -36 19 -70 2 -95
-13 -17 -15 -17 -30 6 -24 34 -21 119 4 119 5 0 15 -13 24 -30z m878 24 c45
-8 46 -17 8 -55 -21 -20 -39 -29 -63 -29 -32 0 -33 1 -33 45 0 50 5 52 88 39z
m594 -68 c-7 -48 -33 -79 -47 -56 -16 25 -12 92 7 112 17 19 18 19 31 1 8 -11
12 -32 9 -57z m-1057 -46 c0 -11 -7 -20 -15 -20 -8 0 -15 9 -15 20 0 11 7 20
15 20 8 0 15 -9 15 -20z m-40 0 c0 -11 78 -464 86 -499 3 -13 7 -21 9 -19 3 3
-11 93 -30 201 -19 108 -35 201 -35 206 0 5 9 13 20 16 15 5 32 -5 67 -42 47
-47 71 -63 125 -83 l28 -9 -25 -37 c-30 -44 -32 -88 -6 -110 14 -13 18 -25 14
-54 -4 -30 -1 -40 16 -52 20 -14 20 -17 6 -44 -8 -16 -15 -43 -15 -59 0 -70
69 -263 89 -251 16 10 68 157 76 212 5 37 2 62 -9 88 -15 35 -14 39 5 59 15
16 19 31 16 54 -4 23 0 36 14 49 30 27 22 71 -23 120 -19 22 -19 22 9 32 15 5
35 13 45 17 14 6 16 1 11 -32 -4 -32 0 -45 20 -68 l25 -29 -39 -46 c-22 -26
-39 -52 -39 -58 0 -9 47 -12 175 -12 96 0 175 -4 175 -8 0 -4 -16 -25 -35 -45
-19 -20 -35 -41 -35 -46 0 -12 -187 -201 -199 -201 -6 0 -31 -20 -57 -45 -25
-25 -52 -45 -59 -45 -8 0 -30 -14 -50 -32 l-36 -31 -27 21 c-15 12 -51 35 -79
52 -29 16 -53 34 -53 40 0 5 -21 24 -47 42 -53 36 -193 172 -193 187 0 6 -13
25 -30 44 l-29 34 77 -4 c57 -3 80 -8 90 -21 12 -15 13 -14 8 8 -24 107 -86
486 -82 497 6 15 26 18 26 3z m393 -61 c-5 -48 -8 -56 -23 -52 -28 7 -59 45
-66 80 -6 31 -6 32 37 35 24 2 47 1 51 -2 4 -3 4 -30 1 -61z m596 -10 c-13
-27 -26 -49 -30 -49 -3 0 -15 10 -27 23 -26 27 -19 42 38 81 45 31 51 13 19
-55z m-1104 -130 c-19 -96 -38 -185 -41 -199 l-6 -25 -9 23 c-9 23 49 319 72
372 24 52 19 -4 -16 -171z m73 169 c-4 -27 -28 -36 -28 -10 0 20 8 32 22 32 5
0 8 -10 6 -22z m-76 -17 c-4 -27 -11 -31 -88 -57 -46 -15 -86 -25 -88 -23 -4
5 -17 59 -14 59 2 0 30 11 63 25 33 13 76 25 96 25 34 0 35 -2 31 -29z m177
-3 c6 -17 4 -25 -8 -30 -27 -11 -31 -9 -31 22 0 36 26 41 39 8z m-404 -22 c21
-32 30 -91 15 -101 -17 -11 -49 23 -56 61 -11 61 12 84 41 40z m1405 -11 c0
-43 -25 -95 -45 -95 -20 0 -20 62 0 100 22 42 45 39 45 -5z m-1090 5 c0 -12
-40 -33 -47 -26 -9 8 28 47 38 40 5 -3 9 -9 9 -14z m-110 -45 c-7 -8 -20 -15
-29 -15 -14 -1 -55 -14 -105 -35 -14 -6 -17 -4 -14 11 2 13 25 26 78 44 74 25
93 23 70 -5z m367 7 c11 -7 6 -62 -6 -62 -4 0 -15 6 -25 13 -15 11 -17 17 -7
35 12 23 19 26 38 14z m267 -49 c-25 -18 -31 -16 -38 14 -10 37 13 50 37 21
18 -21 18 -23 1 -35z m451 48 c3 -5 -9 -20 -26 -32 -40 -28 -71 -98 -67 -147
3 -34 1 -37 -24 -40 -27 -3 -28 -2 -28 47 0 28 -2 51 -4 51 -2 0 -24 -11 -47
-25 -60 -34 -66 -32 -63 17 l2 41 118 48 c132 53 130 53 139 40z m-972 -38 c9
-21 19 -49 22 -63 6 -23 5 -24 -9 -7 -11 15 -19 16 -34 8 -15 -8 -21 -7 -25 4
-4 8 2 17 14 20 14 5 18 12 14 23 -15 35 -17 52 -8 52 6 0 17 -17 26 -37z
m-38 6 c9 -26 -12 -51 -24 -30 -10 15 -3 51 9 51 5 0 12 -9 15 -21z m1029 -11
c-4 -13 -15 -34 -26 -47 -10 -13 -25 -48 -34 -78 -17 -59 -29 -67 -37 -25 -10
49 9 104 47 140 42 38 60 42 50 10z m-1108 -5 c-2 -10 -12 -54 -22 -98 -9 -44
-20 -84 -24 -88 -10 -11 -40 32 -40 58 0 11 -9 38 -20 60 -23 45 -17 57 40 73
55 16 72 14 66 -5z m464 -13 c0 -16 -4 -30 -9 -30 -22 0 -41 13 -41 29 0 23 9
31 32 31 13 0 18 -8 18 -30z m98 6 c2 -10 -2 -22 -10 -27 -25 -17 -38 -9 -38
22 0 26 3 30 22 27 13 -2 24 -11 26 -22z m186 -18 c-16 -30 -17 -31 -30 -13
-22 30 -17 45 16 45 l31 0 -17 -32z m56 -8 c0 -4 -11 -12 -25 -18 -28 -13 -32
-4 -14 29 8 16 13 18 25 8 8 -6 14 -15 14 -19z m-100 0 c9 -17 8 -20 -9 -20
-22 0 -35 15 -26 30 10 16 23 12 35 -10z m-837 -39 c21 -35 23 -91 4 -91 -21
0 -46 32 -53 68 -13 64 17 78 49 23z m282 -189 c-3 -3 -9 -1 -14 4 -17 17 -99
212 -93 219 4 4 31 -44 60 -105 29 -62 50 -115 47 -118z m995 184 c0 -36 -32
-86 -56 -86 -21 0 -18 49 6 88 26 43 50 42 50 -2z m-455 10 c18 -13 18 -14 -3
-25 -32 -17 -42 -13 -42 14 0 28 17 32 45 11z m128 2 c2 -7 2 -21 -1 -30 -3
-14 -8 -15 -28 -6 -28 13 -30 23 -6 37 23 14 30 13 35 -1z m-689 -21 c8 -13 7
-20 -4 -27 -11 -7 -18 -3 -27 13 -20 38 8 51 31 14z m622 12 c7 -12 -15 -31
-28 -23 -4 3 -8 12 -8 20 0 17 26 19 36 3z m-197 -20 c21 -19 41 -59 41 -79 0
-27 -34 -40 -106 -40 -60 0 -78 4 -94 20 -16 16 -18 24 -9 50 24 67 119 95
168 49z m-494 -49 c-11 -17 -24 -11 -31 14 -9 39 6 54 23 22 8 -14 11 -31 8
-36z m875 10 l0 -40 -75 0 c-41 0 -75 2 -75 5 0 5 131 74 143 75 4 0 7 -18 7
-40z m-232 5 c-11 -23 -13 -24 -27 -10 -14 14 -14 17 -1 25 29 19 41 12 28
-15z m87 12 c17 -13 17 -15 -6 -30 -22 -16 -79 -24 -79 -11 0 12 21 44 29 44
4 0 13 -10 19 -22 11 -22 11 -21 6 5 -7 30 3 34 31 14z m-645 -32 c-10 -12 -9
-15 4 -15 10 0 16 -8 16 -22 0 -13 3 -34 6 -48 2 -14 -9 2 -26 35 -29 56 -30
61 -13 73 22 15 31 -1 13 -23z m-84 -82 c8 -19 10 -33 4 -33 -14 0 -50 75 -50
102 1 21 2 21 17 -6 8 -16 22 -45 29 -63z m24 40 c0 -7 -6 -13 -14 -13 -17 0
-28 38 -12 43 12 4 26 -11 26 -30z m913 -25 l-19 -33 -172 -2 c-95 0 -172 2
-172 5 0 3 12 19 27 34 l27 28 164 0 164 0 -19 -32z m-1056 -26 c22 -45 21
-72 -2 -72 -23 0 -55 51 -55 87 0 48 29 41 57 -15z m1136 13 c-3 -34 -33 -79
-57 -83 -24 -5 -21 43 5 85 26 42 55 41 52 -2z m-1057 -1 c-3 -8 -1 -14 4 -14
6 0 10 -4 10 -10 0 -5 -6 -10 -13 -10 -7 0 -14 14 -15 31 -2 20 1 28 8 24 6
-4 9 -13 6 -21z m82 4 c-6 -18 -28 -21 -28 -4 0 9 7 16 16 16 9 0 14 -5 12
-12z m17 -28 c3 -6 -4 -10 -17 -10 -18 0 -20 2 -8 10 19 12 18 12 25 0z m445
-7 c0 -37 -15 -44 -81 -41 -62 3 -64 4 -67 31 l-3 27 75 0 c66 0 76 -2 76 -17z
m322 -10 c-51 -2 -132 -2 -180 0 -48 1 -6 3 93 3 99 0 138 -2 87 -3z m-705
-20 c4 -10 -18 -13 -86 -13 -67 0 -91 3 -91 13 0 18 171 17 177 0z m-151 -79
c37 -39 45 -74 16 -74 -35 0 -92 75 -76 101 10 17 26 9 60 -27z m491 21 c43
-30 39 -126 -9 -237 -21 -49 -22 -49 -34 -26 -22 39 -54 148 -54 185 0 77 46
114 97 78z m469 0 c7 -16 -19 -62 -45 -82 -20 -15 -51 -17 -51 -3 0 21 30 69
52 84 28 20 37 20 44 1z m-858 -141 c19 -13 52 -63 52 -79 0 -16 -50 -1 -72
23 -53 57 -39 97 20 56z m752 2 c0 -17 -45 -73 -69 -86 -9 -5 -23 -5 -30 -1
-28 18 39 101 81 101 10 0 18 -6 18 -14z m-620 -121 c28 -15 50 -42 50 -64 0
-22 -49 -10 -79 18 -53 50 -35 79 29 46z m490 -1 c0 -24 -58 -74 -86 -74 -59
0 8 88 69 90 9 0 17 -7 17 -16z m-327 -122 c27 -25 37 -62 17 -62 -39 0 -106
60 -96 85 8 21 42 11 79 -23z m182 28 c17 -27 -68 -99 -102 -86 -21 9 11 59
51 79 38 19 43 20 51 7z"/>
<path d="M2115 464 c-69 -47 -210 -97 -235 -84 -38 21 -84 12 -122 -24 -37
-35 -86 -48 -298 -78 -127 -18 -569 -15 -705 5 -170 24 -253 45 -260 66 -9 28
-48 44 -92 37 -21 -4 -49 -7 -63 -7 -32 0 -157 51 -207 85 -62 43 -67 33 -23
-53 44 -89 46 -84 -41 -96 -99 -14 -92 -38 33 -99 51 -25 114 -51 140 -58 41
-10 49 -10 66 5 31 28 77 22 105 -14 20 -25 38 -34 102 -50 280 -66 863 -74
1155 -14 126 25 148 34 162 63 20 41 61 51 98 24 16 -12 36 -22 45 -22 48 0
275 113 275 136 0 14 -15 20 -75 29 -81 13 -79 8 -35 95 22 43 36 81 32 83 -4
2 -29 -11 -57 -29z m-1949 -41 c26 -15 74 -37 107 -48 32 -12 59 -23 60 -26 5
-13 -49 -179 -59 -179 -25 0 -131 42 -193 77 l-66 38 78 13 c42 8 77 18 77 23
0 5 -14 36 -30 69 -17 33 -29 60 -26 60 2 0 25 -12 52 -27z m1944 -33 c-16
-33 -30 -64 -30 -69 0 -5 32 -15 72 -21 67 -12 70 -14 52 -27 -30 -23 -175
-91 -210 -98 l-30 -6 -23 83 c-13 46 -24 86 -25 91 -1 4 36 22 81 40 45 19 92
41 105 50 38 27 40 20 8 -43z m-1649 -30 c24 -14 24 -35 -2 -125 l-22 -74 -25
19 c-15 12 -40 20 -63 20 l-38 0 26 78 c14 42 31 80 37 84 16 11 64 10 87 -2z
m1415 2 c11 -7 54 -126 54 -150 0 -10 -7 -13 -21 -9 -24 6 -70 -8 -81 -26 -11
-17 -17 -6 -43 78 -23 76 -23 77 -4 96 19 19 74 26 95 11z m-1275 -72 c161
-33 286 -44 524 -44 235 0 358 10 524 45 52 10 95 18 96 17 4 -5 55 -163 55
-170 0 -10 -120 -35 -260 -55 -159 -22 -623 -25 -780 -5 -100 13 -301 50 -308
57 -3 3 48 175 53 175 1 0 44 -9 96 -20z"/>
<path d="M521 224 c0 -11 3 -14 6 -6 3 7 2 16 -1 19 -3 4 -6 -2 -5 -13z"/>
<path d="M1697 233 c-13 -12 -7 -21 18 -25 13 -3 22 -1 19 3 -3 5 -13 9 -22 9
-15 0 -15 2 -2 10 8 5 10 10 4 10 -6 0 -14 -3 -17 -7z"/>
<path d="M575 220 c-3 -5 -1 -10 4 -10 6 0 11 5 11 10 0 6 -2 10 -4 10 -3 0
-8 -4 -11 -10z"/>
<path d="M617 213 c-4 -3 -7 -15 -7 -26 0 -25 9 -17 15 12 4 22 2 25 -8 14z"/>
<path d="M642 195 c0 -16 2 -22 5 -12 2 9 2 23 0 30 -3 6 -5 -1 -5 -18z"/>
<path d="M1590 203 c0 -15 2 -16 10 -3 9 13 11 13 19 0 5 -8 7 -18 5 -22 -3
-4 0 -8 6 -8 7 0 9 7 6 16 -3 9 -6 20 -6 25 0 5 -9 9 -20 9 -12 0 -20 -7 -20
-17z"/>
<path d="M663 195 c-3 -9 -3 -18 -1 -21 3 -3 8 4 11 16 6 23 -1 27 -10 5z"/>
<path d="M695 185 c0 -13 3 -21 8 -18 4 2 7 10 7 18 0 8 -3 16 -7 18 -5 3 -8
-5 -8 -18z"/>
<path d="M1544 199 c-5 -8 -3 -9 6 -4 7 4 16 2 22 -6 8 -12 9 -12 6 0 -6 20
-24 25 -34 10z"/>
<path d="M586 187 c3 -10 9 -15 12 -12 3 3 0 11 -7 18 -10 9 -11 8 -5 -6z"/>
<path d="M722 180 c0 -14 2 -19 5 -12 2 6 2 18 0 25 -3 6 -5 1 -5 -13z"/>
<path d="M1480 188 c0 -7 11 -18 24 -24 20 -9 23 -9 19 2 -3 8 -13 14 -22 15
-12 0 -12 2 4 9 19 8 19 9 -2 9 -13 1 -23 -5 -23 -11z"/>
<path d="M796 173 c-6 -14 -5 -16 5 -5 19 18 32 15 26 -8 -3 -11 -1 -20 5 -20
5 0 8 10 6 22 -4 28 -33 35 -42 11z"/>
<path d="M855 180 c-3 -5 -1 -10 4 -10 6 0 11 5 11 10 0 6 -2 10 -4 10 -3 0
-8 -4 -11 -10z"/>
<path d="M1401 185 c1 -19 18 -51 18 -35 0 8 -4 22 -9 30 -5 8 -9 11 -9 5z"/>
<path d="M1430 168 c0 -27 1 -27 20 -11 11 10 20 22 20 28 0 5 -5 3 -10 -5 -9
-13 -11 -13 -20 0 -8 12 -10 9 -10 -12z"/>
<path d="M898 155 c2 -14 6 -25 8 -25 2 0 4 11 4 25 0 14 -4 25 -9 25 -4 0 -6
-11 -3 -25z"/>
<path d="M921 153 c0 -25 1 -26 9 -8 12 27 12 35 0 35 -5 0 -10 -12 -9 -27z"/>
<path d="M982 155 c0 -16 2 -22 5 -12 2 9 2 23 0 30 -3 6 -5 -1 -5 -18z"/>
<path d="M1204 165 c-8 -20 2 -45 18 -45 10 0 10 3 -1 9 -8 5 -12 18 -8 30 6
24 -1 29 -9 6z"/>
<path d="M1342 155 c0 -16 2 -22 5 -12 2 9 2 23 0 30 -3 6 -5 -1 -5 -18z"/>
<path d="M1360 160 c0 -11 2 -20 4 -20 2 0 6 9 9 20 3 11 1 20 -4 20 -5 0 -9
-9 -9 -20z"/>
<path d="M1540 171 c0 -6 4 -13 10 -16 6 -3 7 1 4 9 -7 18 -14 21 -14 7z"/>
<path d="M1122 145 c0 -16 2 -22 5 -12 2 9 2 23 0 30 -3 6 -5 -1 -5 -18z"/>
<path d="M1150 164 c0 -6 9 -19 20 -29 20 -18 20 -17 19 11 -1 18 -3 22 -6 11
-5 -18 -5 -18 -19 0 -7 10 -14 13 -14 7z"/>
<path d="M1252 150 c0 -14 2 -19 5 -12 2 6 2 18 0 25 -3 6 -5 1 -5 -13z"/>
<path d="M875 149 c-4 -6 -5 -12 -2 -15 2 -3 7 2 10 11 7 17 1 20 -8 4z"/>
<path d="M940 151 c0 -5 5 -13 10 -16 6 -3 10 -2 10 4 0 5 -4 13 -10 16 -5 3
-10 2 -10 -4z"/>
<path d="M1015 140 c-19 -8 -19 -9 3 -9 12 -1 22 4 22 9 0 6 -1 10 -2 9 -2 0
-12 -4 -23 -9z"/>
<path d="M1080 141 c0 -5 5 -13 10 -16 6 -3 10 -2 10 4 0 5 -4 13 -10 16 -5 3
-10 2 -10 -4z"/>
</g>
</svg>
