<?xml version="1.0" standalone="no"?>
<!DOCTYPE svg PUBLIC "-//W3C//DTD SVG 20010904//EN"
 "http://www.w3.org/TR/2001/REC-SVG-20010904/DTD/svg10.dtd">
<svg version="1.0" xmlns="http://www.w3.org/2000/svg"
 width="1771.000000pt" height="1725.000000pt" viewBox="0 0 1771.000000 1725.000000"
 preserveAspectRatio="xMidYMid meet">
<metadata>
Created by potrace 1.16, written by Peter Selinger 2001-2019
</metadata>
<g transform="translate(0.000000,1725.000000) scale(0.100000,-0.100000)"
fill="rgb(235, 215, 99)" stroke="none">
<path d="M8935 16875 c-33 -14 -69 -29 -80 -34 -50 -24 -364 -129 -490 -166
-33 -9 -89 -25 -125 -36 -36 -10 -108 -30 -160 -44 -52 -14 -113 -30 -135 -36
-22 -6 -56 -15 -75 -20 -49 -13 -235 -50 -295 -60 -27 -4 -97 -15 -155 -24
-234 -36 -247 -37 -595 -64 -347 -27 -826 -2 -1230 64 -55 10 -122 20 -150 25
-67 10 -226 45 -300 65 -33 9 -100 28 -150 42 -49 13 -103 28 -120 33 -70 19
-197 60 -295 95 -58 20 -116 40 -130 45 -27 8 -122 45 -155 59 -11 5 -41 18
-67 30 -57 25 -72 21 -92 -27 -41 -97 -159 -300 -275 -472 -236 -350 -416
-571 -712 -875 -80 -82 -152 -161 -159 -175 -7 -14 -25 -40 -39 -59 -16 -22
-35 -70 -49 -130 -56 -232 -58 -238 -96 -331 -33 -83 -63 -189 -85 -300 -6
-30 -16 -140 -21 -245 -6 -104 -15 -230 -21 -280 -5 -49 -13 -142 -18 -205 -7
-107 -16 -144 -60 -245 -29 -65 -50 -164 -72 -336 -10 -77 -10 -113 0 -175 21
-132 42 -238 50 -259 36 -88 41 -124 41 -289 0 -114 -5 -188 -14 -225 -59
-231 -46 -448 44 -721 36 -108 51 -192 82 -455 11 -99 11 -114 -1 -195 -20
-133 -24 -241 -12 -343 24 -202 85 -375 176 -502 25 -35 45 -70 45 -77 0 -8 4
-18 9 -24 5 -5 16 -42 25 -83 15 -63 15 -88 5 -175 -29 -246 17 -500 129 -715
45 -88 83 -139 163 -227 26 -28 57 -73 69 -100 79 -178 84 -193 91 -309 17
-283 132 -550 323 -755 93 -99 186 -273 186 -347 0 -78 31 -240 60 -318 5 -11
14 -36 20 -55 81 -225 244 -431 436 -548 85 -53 142 -142 180 -282 25 -93 103
-253 163 -335 66 -90 176 -201 271 -273 100 -77 163 -140 310 -315 89 -104
138 -173 170 -235 64 -125 149 -238 259 -345 91 -88 131 -117 278 -205 34 -20
88 -62 120 -92 32 -30 112 -104 178 -164 66 -61 151 -144 190 -185 169 -184
279 -274 439 -361 43 -24 131 -82 195 -128 64 -47 186 -132 271 -190 119 -80
179 -129 260 -211 203 -207 368 -302 640 -371 91 -23 118 -33 260 -101 80 -39
157 -76 172 -83 21 -11 30 -12 45 -2 10 7 47 29 83 48 189 103 283 149 355
174 171 59 333 160 492 307 50 46 115 100 145 121 169 116 290 202 423 301 83
61 211 151 285 199 119 77 155 108 305 260 94 95 193 192 220 216 28 24 98 89
156 145 66 62 129 111 165 129 95 48 182 114 289 221 117 116 171 190 243 334
29 58 69 123 90 146 20 23 86 98 146 168 66 77 129 140 160 159 172 110 356
310 444 483 44 87 92 221 92 257 0 46 76 156 130 188 133 80 320 258 361 345
5 11 22 40 38 65 15 25 40 77 55 115 15 39 31 79 35 90 20 48 31 96 46 190 31
196 35 212 80 295 25 46 45 87 45 91 0 3 36 47 81 95 109 121 181 232 241 378
35 86 78 244 78 288 0 70 30 181 85 313 6 17 22 57 35 90 14 36 42 80 70 110
127 137 224 339 265 555 9 47 20 107 26 133 11 60 12 163 0 203 -9 33 0 84 44
244 14 52 30 109 34 125 4 17 28 73 53 125 40 83 62 143 99 267 16 53 29 192
29 318 0 66 5 138 10 160 6 22 15 72 20 110 34 256 65 433 81 470 18 42 58
163 75 230 15 56 18 108 18 260 0 117 -5 206 -12 231 -9 30 -10 68 -3 140 5
55 15 187 21 294 7 107 16 219 21 249 19 116 -2 955 -27 1074 -3 16 0 81 7
145 11 102 10 135 -5 249 -9 73 -20 143 -25 155 -5 13 -16 48 -26 78 -17 51
-46 125 -64 160 -5 8 -31 89 -60 180 -29 91 -56 173 -61 182 -6 10 -10 25 -10
33 0 8 -4 23 -9 33 -6 9 -22 58 -37 107 l-28 90 -130 135 c-150 156 -367 400
-453 510 -204 261 -436 617 -542 833 -18 37 -38 70 -43 73 -6 4 -33 -4 -62
-16 -90 -40 -114 -50 -120 -50 -3 0 -25 -9 -49 -19 -58 -27 -373 -136 -462
-161 -16 -5 -70 -20 -120 -35 -230 -67 -333 -91 -565 -129 -405 -68 -803 -91
-1130 -65 -334 26 -411 36 -700 89 -55 10 -252 55 -300 68 -19 6 -78 22 -130
37 -52 14 -108 30 -125 35 -165 48 -214 63 -305 93 -120 41 -253 89 -390 142
-122 48 -133 49 -205 20z m-176 -424 c49 -10 89 -36 110 -73 13 -23 13 -31 -4
-74 -25 -65 -84 -127 -180 -188 -91 -59 -105 -65 -212 -102 -68 -23 -95 -27
-213 -28 -134 -1 -135 -1 -180 29 -58 39 -69 71 -46 124 60 132 303 284 496
311 77 10 177 11 229 1z m781 -25 c107 -34 174 -67 258 -126 76 -53 121 -106
154 -179 20 -43 20 -44 0 -70 -42 -56 -74 -66 -222 -65 -119 1 -145 5 -220 29
-97 32 -233 109 -298 169 -58 53 -112 137 -112 174 0 41 46 77 120 93 66 15
239 1 320 -25z m-4644 -76 c272 -63 493 -212 494 -335 0 -35 -5 -43 -35 -64
-49 -33 -113 -45 -230 -45 -163 1 -271 26 -412 96 -128 64 -253 189 -253 254
0 34 62 79 128 94 31 7 62 14 67 16 18 7 191 -5 241 -16z m8453 -27 c64 -19
117 -54 126 -83 16 -51 -102 -180 -217 -237 -72 -36 -191 -77 -258 -89 -57
-10 -244 -9 -290 1 -48 11 -110 51 -111 73 -5 74 35 133 134 200 186 124 456
183 616 135z m-5691 -175 c67 -24 136 -75 145 -107 7 -26 -39 -98 -84 -132
-148 -112 -439 -183 -614 -149 -33 6 -73 13 -90 16 -67 12 -156 71 -170 113
-22 70 145 201 328 256 134 40 373 42 485 3z m3007 22 c189 -18 371 -105 455
-216 37 -49 37 -73 3 -106 -77 -72 -250 -110 -410 -90 -187 23 -275 51 -400
129 -47 29 -133 122 -133 144 0 5 18 29 39 52 74 80 224 110 446 87z m-4470
-85 c144 -33 198 -53 277 -102 70 -44 128 -107 128 -141 0 -76 -199 -156 -390
-156 -111 0 -204 16 -314 52 -103 33 -161 66 -214 120 -52 55 -61 85 -35 120
25 33 130 89 203 106 74 18 270 19 345 1z m5965 -9 c197 -64 245 -132 156
-221 -113 -112 -394 -191 -593 -165 -134 17 -146 20 -218 55 -116 57 -133 118
-52 192 77 71 153 106 297 138 41 9 80 19 85 21 6 2 69 2 140 0 90 -2 147 -8
185 -20z m-8021 -130 c69 -36 80 -127 32 -270 -41 -124 -104 -227 -198 -326
-125 -131 -263 -221 -359 -234 -104 -13 -139 22 -139 138 1 79 26 164 77 256
128 232 297 382 488 436 60 16 66 16 99 0z m4823 -70 c89 -35 244 -89 378
-132 63 -20 124 -40 135 -44 11 -5 47 -16 80 -25 33 -10 85 -26 115 -36 52
-17 174 -51 250 -69 86 -21 268 -61 300 -66 19 -3 53 -9 75 -15 70 -17 306
-51 415 -59 58 -5 152 -14 210 -19 138 -13 455 -13 600 0 63 6 162 14 220 19
89 7 228 27 500 70 30 5 109 21 175 35 66 15 138 30 160 35 47 10 224 54 275
68 235 67 294 82 325 85 15 2 29 -16 64 -83 146 -284 372 -547 649 -760 61
-47 112 -92 112 -100 0 -9 -42 -48 -92 -88 -213 -167 -314 -242 -324 -242 -6
0 -33 24 -60 52 -201 215 -469 400 -764 526 -56 24 -234 84 -315 107 -33 9
-73 20 -90 25 -172 48 -318 62 -630 57 -282 -4 -393 -15 -510 -47 -22 -6 -56
-15 -75 -20 -72 -17 -142 -39 -195 -60 -11 -4 -36 -14 -55 -20 -121 -44 -303
-136 -405 -205 -53 -36 -100 -65 -105 -65 -4 0 -50 32 -101 70 -52 39 -97 70
-101 70 -4 0 -31 15 -60 34 -49 30 -299 156 -313 156 -3 0 -24 9 -48 19 -74
34 -255 90 -377 117 -190 42 -345 57 -590 56 -290 0 -482 -24 -726 -91 -256
-70 -621 -254 -823 -415 -38 -31 -78 -56 -88 -56 -10 0 -35 13 -54 30 -94 77
-389 232 -539 283 -216 74 -363 107 -594 132 -225 25 -541 7 -771 -45 -22 -4
-76 -16 -120 -26 -148 -31 -370 -97 -390 -115 -5 -5 -15 -9 -23 -9 -26 0 -261
-118 -349 -175 -106 -69 -171 -122 -239 -195 -58 -62 -53 -62 -144 20 -24 22
-68 57 -97 77 -28 21 -52 45 -53 53 0 15 22 34 139 123 92 69 279 255 365 362
113 142 163 216 225 337 45 88 62 113 77 111 28 -3 128 -28 309 -78 82 -23
250 -64 305 -74 25 -5 106 -22 180 -36 74 -15 160 -31 190 -35 30 -5 102 -16
160 -25 187 -29 243 -36 360 -45 63 -6 162 -14 220 -19 138 -13 658 -13 785 0
55 5 143 14 195 18 269 25 779 134 935 201 11 5 54 21 95 35 93 34 109 40 140
53 14 5 70 29 125 51 55 23 138 61 185 85 47 24 95 45 107 45 13 1 51 -10 85
-23z m4900 -50 c96 -33 169 -80 262 -168 120 -112 218 -251 271 -380 31 -77
36 -219 8 -250 -26 -29 -137 -25 -209 7 -124 55 -293 208 -391 355 -88 132
-123 227 -123 332 0 65 2 72 31 99 38 35 63 36 151 5z m-4849 -691 c159 -14
293 -33 382 -55 22 -5 63 -14 90 -20 28 -5 61 -14 75 -19 14 -4 43 -14 65 -20
48 -15 164 -57 220 -79 128 -52 405 -207 413 -230 5 -17 -107 -122 -130 -122
-9 0 -58 25 -108 56 -119 72 -235 125 -384 176 -126 43 -133 45 -281 76 -425
91 -837 79 -1280 -38 -44 -11 -89 -24 -100 -29 -11 -5 -36 -14 -55 -21 -19 -7
-49 -19 -67 -26 -17 -8 -34 -14 -37 -14 -26 0 -274 -137 -365 -201 l-61 -43
-64 63 c-36 36 -62 70 -59 77 3 7 53 44 111 82 218 140 489 256 729 312 191
44 268 57 453 74 184 18 257 18 453 1z m3047 -100 c177 -22 276 -40 385 -70
33 -10 71 -19 85 -22 14 -3 30 -9 35 -13 6 -4 24 -10 40 -14 31 -7 116 -38
172 -62 17 -8 34 -14 38 -14 7 0 161 -77 218 -109 21 -12 71 -44 110 -71 40
-28 80 -56 90 -63 92 -61 247 -200 247 -221 0 -11 -96 -91 -123 -102 -12 -4
-51 26 -142 109 -78 73 -309 217 -455 285 -165 77 -225 100 -345 132 -16 5
-55 15 -85 23 -69 19 -221 42 -370 58 -216 22 -552 -4 -748 -57 -32 -9 -70
-19 -87 -24 -116 -30 -279 -102 -419 -185 -42 -25 -80 -45 -84 -45 -15 0 -122
116 -122 132 0 17 4 19 135 86 177 90 337 151 490 186 39 9 79 19 90 22 26 7
127 22 245 38 134 18 460 19 600 1z m-6000 -16 c114 -16 239 -39 300 -56 30
-8 69 -18 85 -23 36 -9 151 -47 180 -59 57 -24 77 -33 155 -70 157 -76 260
-141 260 -165 0 -14 -81 -96 -95 -96 -6 0 -77 33 -160 74 -82 41 -184 86 -225
99 -76 26 -256 71 -320 81 -206 33 -283 38 -550 39 -270 2 -388 -6 -505 -33
-22 -5 -71 -16 -110 -25 -78 -17 -140 -34 -170 -45 -11 -4 -45 -15 -75 -25
-122 -39 -427 -201 -522 -276 -20 -16 -45 -29 -54 -29 -26 0 -124 80 -124 100
0 10 19 35 43 55 39 34 259 185 270 185 3 0 47 20 98 44 100 46 262 104 369
131 36 9 81 20 100 25 293 75 779 106 1050 69z m-2768 -136 c56 -61 97 -181
105 -310 7 -117 -7 -213 -57 -388 -26 -87 -74 -170 -136 -232 -57 -58 -65 -63
-106 -63 -39 1 -46 5 -76 45 -19 24 -45 77 -58 117 -23 68 -25 83 -22 248 3
141 8 190 25 250 42 150 128 299 196 341 47 28 98 25 129 -8z m5386 -430 l-3
-418 -79 -3 c-57 -2 -82 1 -87 10 -5 7 -9 189 -9 404 0 301 3 394 13 402 14
12 52 18 120 21 l47 1 -2 -417z m277 2 l0 -410 -50 -7 c-27 -4 -65 -5 -82 -2
l-33 6 0 415 0 414 83 -3 82 -3 0 -410z m220 387 l50 -7 0 -395 0 -395 -80 0
-80 0 -3 395 c-1 217 0 401 3 407 2 8 15 11 32 7 15 -3 51 -8 78 -12z m-777
-401 c2 -309 -1 -396 -10 -403 -20 -12 -133 -9 -146 4 -17 17 -17 754 -1 764
18 11 112 32 134 31 20 -2 20 -10 23 -396z m1057 345 l35 -15 0 -359 c0 -406
8 -372 -85 -372 -43 0 -56 4 -65 19 -6 13 -10 151 -10 380 l0 361 45 0 c25 0
61 -7 80 -14z m2197 -351 c-2 -198 -7 -364 -11 -368 -4 -4 -43 -7 -87 -5 l-79
3 0 360 0 359 25 7 c14 4 54 7 90 6 l65 -2 -3 -360z m263 -5 l0 -365 -75 0
-75 0 -3 368 -2 368 77 -3 78 -3 0 -365z m258 331 c4 -4 6 -162 5 -352 l-3
-344 -75 0 -75 0 -3 359 -2 359 72 -7 c40 -4 76 -11 81 -15z m-6643 -367 l0
-365 -87 3 -88 3 -3 353 c-2 277 0 354 10 357 20 7 152 22 161 18 4 -3 7 -168
7 -369z m259 362 c8 -9 11 -114 9 -367 l-3 -354 -80 0 -80 0 0 350 c0 193 3
358 7 368 6 14 20 17 71 17 42 0 68 -5 76 -14z m2339 -353 l-3 -368 -72 -3
c-61 -2 -73 0 -81 15 -5 10 -10 165 -11 344 -2 296 0 327 15 340 25 21 74 36
117 38 l37 1 -2 -367z m3226 359 c2 -4 6 -162 7 -352 l3 -345 -82 -3 -82 -3 0
334 0 334 43 13 c23 7 53 16 67 20 33 11 38 11 44 2z m-5296 -25 c9 -7 12 -86
10 -356 l-3 -346 -80 0 -80 0 -3 354 c-1 233 1 357 8 361 15 9 133 -1 148 -13z
m-820 -20 c8 -9 10 -119 7 -347 l-4 -335 -83 0 -83 0 0 330 0 329 33 8 c17 4
47 12 65 17 46 13 53 13 65 -2z m4443 -2 c19 -9 45 -22 59 -28 l25 -13 0 -309
0 -310 -85 0 -85 0 -3 338 -2 337 28 0 c16 0 44 -7 63 -15z m2719 -4 l55 -18
3 -310 2 -310 -37 -7 c-21 -3 -52 -6 -70 -6 -67 0 -63 -21 -63 341 l0 329 28
0 c15 0 52 -9 82 -19z m2289 -38 c58 -59 114 -160 140 -253 7 -25 17 -55 22
-67 4 -12 13 -61 20 -108 25 -188 -39 -402 -141 -475 l-30 -22 -53 30 c-90 50
-158 159 -202 324 -21 78 -25 115 -25 233 0 156 17 233 66 309 47 72 64 86
107 86 34 0 46 -7 96 -57z m-8414 34 l60 -13 0 -329 0 -330 -82 -3 -83 -3 0
330 c0 181 3 336 6 345 7 19 19 19 99 3z m4815 -24 c0 -5 1 -145 1 -313 l1
-305 -33 -8 c-18 -5 -48 -6 -67 -2 -60 11 -66 42 -67 325 l0 245 35 17 c87 41
130 54 130 41z m-3232 -325 l-3 -323 -77 -3 -78 -3 0 296 0 295 28 11 c15 5
45 18 67 29 22 10 46 19 53 20 10 0 12 -68 10 -322z m-2888 -12 l0 -313 -31
-7 c-51 -10 -114 -7 -127 6 -9 9 -12 86 -12 285 0 310 -5 290 87 323 91 33 83
61 83 -294z m1565 289 c39 -14 71 -25 73 -25 1 0 2 -130 2 -290 l0 -290 -85 0
-85 0 0 315 c0 245 3 315 13 315 6 0 44 -12 82 -25z m6115 -16 c52 -24 70 -37
70 -51 0 -11 1 -127 3 -259 l2 -239 -27 -1 c-97 -5 -114 -5 -125 -1 -10 3 -13
68 -13 277 0 245 3 305 16 305 2 0 35 -14 74 -31z m-2177 -77 l48 -49 -62 -54
c-34 -30 -65 -55 -70 -57 -11 -4 -139 108 -139 122 0 6 28 36 62 67 l63 57 25
-18 c14 -10 47 -41 73 -68z m-535 47 c70 -38 102 -67 102 -90 0 -20 -146 -219
-160 -219 -6 0 -10 68 -10 170 0 94 2 170 6 170 3 0 31 -14 62 -31z m-6263 -9
c8 -12 139 -121 265 -220 52 -41 131 -105 175 -143 65 -56 287 -238 505 -412
21 -16 75 -62 121 -101 46 -39 167 -137 269 -219 102 -82 228 -185 280 -230
52 -44 138 -114 190 -155 52 -41 160 -128 239 -194 80 -67 228 -188 330 -270
102 -82 240 -194 306 -250 66 -56 188 -155 270 -220 83 -66 154 -123 160 -128
6 -5 5 -15 -2 -27 -35 -56 -134 -259 -167 -341 -21 -52 -42 -104 -46 -115 -9
-20 -51 -158 -70 -225 -5 -19 -17 -75 -25 -125 -9 -49 -20 -113 -26 -142 -6
-29 -9 -183 -8 -355 l1 -303 -103 -8 c-157 -11 -229 -31 -389 -109 -173 -85
-181 -88 -280 -115 -92 -24 -280 -44 -595 -63 -158 -10 -333 -31 -410 -49 -22
-6 -58 -14 -80 -19 -41 -9 -154 -46 -190 -61 -11 -5 -45 -19 -75 -31 -65 -26
-116 -49 -230 -102 -47 -22 -98 -46 -115 -53 -16 -7 -70 -33 -120 -56 -49 -24
-94 -43 -98 -43 -19 -2 -66 107 -91 214 -15 63 -34 144 -43 180 -17 66 -18 89
-13 355 3 153 -18 324 -50 400 -4 11 -14 36 -20 55 -7 19 -26 63 -41 96 -16
34 -34 86 -40 115 -6 30 -15 70 -20 90 -14 55 -11 238 5 284 7 22 19 93 26
158 20 186 -3 360 -76 572 l-35 99 4 211 c4 191 7 223 36 350 28 123 31 154
27 255 -2 63 -9 152 -17 197 -11 69 -11 101 0 190 8 60 17 137 21 173 16 141
30 199 70 285 24 53 49 123 80 220 17 55 40 234 40 315 0 78 1 80 24 80 14 0
28 -4 31 -10z m3506 -28 c49 -33 99 -81 99 -97 0 -17 -75 -95 -91 -95 -9 0
-44 27 -134 102 -8 7 80 108 95 108 3 0 17 -8 31 -18z m3639 -97 c0 -57 -4
-106 -9 -109 -5 -3 -35 29 -66 71 l-57 77 28 23 c37 29 86 53 96 47 4 -3 8
-52 8 -109z m3319 101 c21 -25 41 -111 41 -181 1 -105 26 -280 54 -381 8 -28
22 -125 31 -215 21 -213 17 -390 -14 -524 -19 -80 -23 -128 -23 -245 0 -145
10 -211 56 -373 9 -32 16 -90 16 -130 -1 -127 -28 -329 -55 -417 -14 -47 -33
-121 -42 -165 -20 -102 -22 -324 -3 -380 18 -54 15 -251 -5 -341 -10 -40 -33
-97 -56 -136 -102 -169 -152 -352 -165 -600 l-7 -126 -121 -73 c-235 -140
-488 -331 -612 -461 -65 -67 -104 -137 -104 -185 0 -38 53 -139 96 -183 19
-20 34 -40 34 -45 0 -10 -92 -55 -110 -55 -5 0 -24 -6 -42 -14 -18 -8 -49 -21
-68 -29 -19 -9 -60 -25 -90 -36 -30 -12 -64 -25 -75 -30 -35 -14 -69 -28 -115
-46 -79 -31 -84 -33 -132 -54 -26 -12 -50 -21 -53 -21 -4 0 -25 -8 -48 -19
-23 -10 -67 -29 -97 -41 -30 -12 -68 -28 -85 -35 -16 -7 -95 -38 -175 -70 -80
-31 -154 -60 -165 -64 -11 -5 -31 -13 -45 -19 -14 -5 -50 -20 -80 -32 -30 -12
-68 -28 -85 -35 -16 -7 -91 -36 -165 -64 -74 -29 -152 -61 -173 -71 -22 -11
-40 -20 -42 -20 -2 0 -29 36 -60 81 -82 115 -200 208 -325 254 -25 9 -54 20
-65 25 -58 23 -116 30 -249 30 -112 0 -146 3 -146 13 0 7 23 35 51 62 43 42
138 157 227 275 68 90 207 356 252 480 6 19 16 44 20 55 13 33 28 77 51 150
105 339 128 749 64 1110 -13 68 -37 181 -44 200 -4 11 -27 79 -51 150 -58 177
-161 400 -231 501 -16 24 -29 49 -29 58 0 8 35 40 78 70 42 31 125 93 184 139
123 95 328 252 548 420 85 65 225 172 310 238 85 66 166 128 180 137 44 30
180 134 336 257 56 44 175 135 266 202 90 67 202 152 249 189 46 38 194 151
329 253 135 101 274 208 310 236 36 29 133 103 215 165 83 62 168 128 190 146
45 38 48 39 64 20z m-9441 -254 c2 -200 0 -252 -11 -252 -7 0 -34 18 -61 40
-27 23 -56 45 -65 50 -13 7 -17 34 -19 164 -2 91 1 163 7 173 10 19 120 83
136 79 6 -2 11 -97 13 -254z m2100 219 c77 -42 79 -58 18 -144 -24 -34 -51
-77 -60 -94 -9 -18 -21 -33 -26 -33 -6 0 -10 61 -10 156 0 86 3 154 8 152 4
-1 35 -18 70 -37z m800 -82 c2 -53 -1 -111 -5 -130 -9 -33 -10 -33 -26 -14
-57 70 -116 157 -111 168 6 18 105 76 124 74 12 -2 16 -22 18 -98z m5330 41
c35 -24 62 -49 65 -63 3 -12 3 -94 1 -182 l-3 -160 -47 -6 c-27 -3 -57 -4 -68
-3 -12 1 -24 3 -28 3 -5 1 -8 102 -8 226 0 185 2 225 14 225 7 0 41 -18 74
-40z m-2679 -107 l72 -68 -48 -56 c-26 -31 -63 -78 -82 -105 -30 -43 -35 -47
-42 -29 -9 24 -11 270 -3 303 4 12 12 22 19 22 7 0 45 -30 84 -67z m-3236 5
c48 -32 97 -80 97 -94 0 -16 -118 -174 -130 -174 -14 0 -20 43 -20 152 0 98 5
138 17 138 3 0 19 -10 36 -22z m6156 -75 c70 -58 103 -92 96 -102 -3 -5 -34
-30 -70 -56 -69 -49 -100 -55 -99 -17 0 12 1 65 2 117 1 64 6 95 13 95 7 0 32
-17 58 -37z m-2457 -15 c67 -85 101 -148 102 -192 l1 -41 -75 0 -75 0 -3 138
c-1 77 1 137 7 137 5 0 24 -19 43 -42z m-681 -75 c1 -32 3 -69 5 -83 2 -14 1
-37 -2 -52 -6 -28 -7 -28 -80 -28 -54 0 -74 3 -74 13 0 25 124 207 141 207 5
0 10 -26 10 -57z m-3171 -78 l0 -105 -70 0 c-38 0 -70 2 -70 5 0 16 121 205
132 205 4 0 8 -47 8 -105z m646 53 c50 -70 86 -140 75 -151 -4 -4 -35 -7 -67
-5 l-59 3 -3 60 c-3 56 5 145 13 145 2 0 20 -24 41 -52z m5426 -223 c3 -10
-137 -110 -204 -145 -37 -20 -76 -20 -3886 -20 -3097 0 -3854 2 -3873 13 -57
30 -139 91 -139 102 0 10 226 14 1048 19 1054 7 1732 10 1787 8 17 -1 107 2
200 7 94 5 553 9 1021 10 746 1 853 -1 864 -14 7 -8 20 -15 30 -15 10 0 20 7
24 15 5 13 119 15 938 16 513 1 1147 5 1408 8 645 9 779 8 782 -4z m-334 -262
c-2 -10 -115 -101 -251 -204 -136 -102 -269 -204 -295 -225 -87 -72 -79 -68
-109 -48 -15 9 -37 26 -48 37 -44 41 -156 104 -285 160 -322 138 -744 154
-1090 40 -233 -77 -415 -195 -597 -387 -89 -95 -121 -113 -148 -87 -15 14
-238 86 -340 110 -250 59 -302 64 -580 64 -277 1 -351 -8 -595 -65 -97 -23
-279 -82 -321 -103 -50 -26 -74 -19 -112 33 -66 89 -241 240 -352 303 -138 78
-249 124 -385 160 -89 24 -292 49 -395 49 -116 0 -340 -29 -423 -55 -26 -8
-69 -22 -97 -31 -46 -14 -78 -28 -175 -73 -58 -27 -141 -81 -211 -137 l-67
-53 -58 52 c-55 49 -356 293 -448 363 -82 63 -109 90 -102 102 5 9 889 12
3747 12 3544 0 3740 -1 3737 -17z m-9549 -112 c14 -9 39 -44 58 -77 137 -247
115 -687 -43 -873 -34 -39 -38 -41 -94 -41 -55 0 -60 2 -89 37 -36 43 -81 128
-81 152 0 9 -4 21 -9 27 -27 30 -46 257 -32 389 17 160 60 276 134 361 50 57
101 66 156 25z m11650 -95 c71 -37 140 -151 176 -291 25 -93 25 -292 2 -389
-24 -97 -87 -226 -126 -259 -25 -21 -43 -27 -78 -27 -41 0 -50 5 -86 42 -109
114 -164 382 -123 593 32 159 65 233 137 300 53 50 58 51 98 31z m-7815 -391
c207 -35 310 -66 447 -135 85 -43 220 -127 231 -144 13 -19 10 -23 -44 -57
-167 -107 -358 -275 -494 -434 l-106 -125 -77 68 c-112 99 -176 152 -370 308
-96 76 -193 155 -217 174 -183 151 -244 205 -241 214 7 20 131 68 262 101 164
42 453 56 609 30z m4331 -4 c72 -11 150 -26 175 -34 25 -8 77 -24 115 -36 90
-29 135 -50 135 -65 -1 -6 -24 -27 -52 -46 -28 -19 -67 -49 -87 -66 -46 -39
-239 -187 -311 -239 -30 -22 -57 -42 -60 -45 -3 -3 -50 -39 -105 -80 -55 -41
-137 -105 -182 -142 -45 -38 -90 -68 -100 -68 -10 0 -48 36 -86 79 -132 155
-356 345 -509 434 -27 15 -48 34 -48 41 0 22 40 49 196 131 252 132 597 183
919 136z m-2280 -162 c13 -19 -27 -393 -42 -405 -8 -7 -37 -12 -66 -13 -29 0
-92 -6 -142 -12 -49 -7 -109 -12 -133 -13 -42 -1 -44 0 -73 54 -17 30 -42 75
-56 100 -14 25 -41 74 -60 110 -20 36 -39 69 -44 74 -18 20 -9 46 19 52 15 3
34 8 42 11 18 6 112 21 245 37 129 17 302 20 310 5z m420 -49 c76 -20 120 -32
140 -41 11 -4 49 -18 84 -29 122 -40 377 -164 394 -191 8 -13 -7 -38 -79 -125
-49 -60 -106 -130 -127 -157 -21 -26 -43 -47 -48 -47 -5 0 -55 22 -112 49 -98
47 -247 102 -315 116 -39 8 -56 34 -43 68 5 13 12 62 16 108 8 106 25 241 31
251 7 10 11 10 59 -2z m-1358 -192 c42 -76 68 -121 97 -167 15 -22 26 -43 26
-46 0 -3 12 -23 26 -45 34 -51 30 -56 -90 -116 -50 -25 -124 -68 -165 -95 -52
-34 -78 -46 -86 -39 -7 5 -32 35 -56 66 -24 31 -79 99 -121 150 -43 52 -78 98
-78 103 0 11 135 102 215 147 134 74 171 93 187 93 10 1 28 -20 45 -51z m2421
-413 c117 -121 135 -145 124 -161 -4 -5 -69 -56 -144 -112 -76 -57 -140 -107
-143 -112 -4 -6 -14 -10 -22 -10 -19 0 -218 189 -218 207 0 7 50 69 110 139
61 70 118 140 128 156 23 38 30 34 165 -107z m-7399 65 c50 -25 92 -76 135
-165 69 -140 91 -240 91 -420 0 -160 -12 -227 -62 -333 -42 -90 -77 -113 -143
-93 -78 23 -176 192 -225 387 -23 94 -21 361 4 435 28 83 60 140 98 177 40 37
51 39 102 12z m11716 -60 c43 -26 97 -131 120 -234 19 -83 17 -250 -4 -319 -5
-18 -17 -59 -26 -92 -23 -85 -83 -200 -132 -256 -45 -49 -87 -66 -136 -54 -36
9 -83 81 -112 170 -22 68 -25 95 -25 220 0 164 20 264 75 380 39 80 109 164
157 188 42 21 44 21 83 -3z m-7342 -149 c48 -58 104 -125 124 -149 l36 -42
-40 -48 c-22 -26 -45 -57 -52 -69 -6 -13 -20 -23 -29 -23 -10 0 -60 36 -112
81 -52 45 -121 101 -152 126 -32 24 -58 51 -58 59 0 14 39 62 118 146 36 37
48 44 61 36 9 -6 56 -58 104 -117z m1707 -189 c0 -165 3 -374 7 -467 l6 -168
-29 6 c-16 3 -72 15 -124 27 -93 21 -97 21 -190 5 -52 -9 -108 -23 -125 -30
-16 -7 -46 -20 -65 -28 -19 -8 -56 -30 -83 -51 -26 -20 -54 -36 -61 -36 -33 0
-33 299 -1 453 19 91 63 201 105 268 56 86 191 202 285 243 22 9 49 21 60 26
51 23 144 49 178 49 l37 1 0 -298z m1614 -37 c9 -13 47 -84 84 -157 117 -227
172 -391 219 -658 13 -71 17 -157 17 -340 1 -230 -7 -329 -34 -445 -32 -139
-42 -178 -64 -245 -55 -171 -126 -322 -227 -483 -72 -113 -249 -341 -273 -350
-18 -7 -35 7 -72 58 -16 22 -66 88 -111 146 -46 59 -83 112 -83 119 0 7 22 38
48 69 105 121 199 275 256 416 15 39 32 79 36 90 19 45 60 186 60 205 0 12 5
30 10 40 13 24 40 279 40 374 0 84 -26 322 -41 380 -6 23 -15 59 -21 81 -15
58 -57 184 -75 225 -40 90 -79 168 -100 202 -13 21 -23 42 -23 46 0 5 41 40
92 78 51 38 121 93 156 122 36 28 70 52 77 52 7 0 20 -11 29 -25z m-3687 -81
c53 -40 145 -115 153 -125 3 -3 31 -25 63 -48 31 -24 57 -49 57 -56 0 -7 -16
-48 -36 -91 -53 -116 -51 -111 -85 -214 -33 -96 -37 -115 -65 -275 -28 -165
-19 -510 17 -650 33 -125 43 -158 71 -235 72 -198 190 -400 316 -540 12 -14
22 -29 22 -35 0 -13 -249 -335 -258 -335 -25 0 -203 222 -292 364 -62 99 -180
334 -180 359 0 9 -4 18 -9 21 -5 3 -11 16 -14 28 -3 13 -17 61 -32 108 -48
151 -70 271 -89 480 -13 145 -13 184 0 325 29 314 91 548 211 795 35 72 89
160 98 160 3 0 26 -16 52 -36z m478 -655 c44 -5 136 -13 205 -18 69 -5 177
-14 240 -20 63 -7 165 -17 225 -23 61 -6 116 -15 123 -21 18 -14 15 -43 -12
-127 -40 -125 -49 -213 -33 -305 14 -78 51 -191 68 -209 5 -6 9 -20 9 -33 0
-23 -1 -23 -82 -18 -329 22 -551 110 -704 278 -61 67 -134 207 -153 292 -25
109 -38 190 -34 202 6 15 38 16 148 2z m2210 -105 c217 -25 298 -35 354 -45
30 -5 75 -9 99 -9 54 0 162 -18 182 -30 11 -7 12 -13 3 -32 -7 -13 -26 -59
-44 -102 -62 -152 -161 -270 -299 -357 -133 -84 -257 -111 -475 -107 -146 3
-150 4 -153 25 -2 12 3 32 12 45 25 38 53 129 66 211 15 90 4 185 -36 304 -13
39 -24 83 -24 98 l0 27 93 -6 c50 -4 151 -14 222 -22z m-6541 -23 c57 -36 121
-139 160 -261 43 -132 45 -141 57 -229 12 -86 1 -237 -23 -311 -26 -82 -49
-134 -79 -171 -28 -35 -35 -39 -77 -39 -42 0 -50 4 -95 51 -58 60 -118 180
-142 284 -9 39 -20 86 -26 106 -5 20 -9 92 -9 160 1 184 48 342 120 403 37 31
71 33 114 7z m11371 -15 c67 -71 110 -225 110 -391 -1 -216 -71 -435 -178
-552 -46 -50 -52 -53 -97 -53 -44 0 -52 4 -82 40 -21 24 -46 72 -63 122 -27
79 -28 92 -28 258 0 101 5 191 11 210 6 19 19 62 28 95 32 112 113 238 185
288 38 27 77 21 114 -17z m-8065 -788 c6 -24 15 -54 20 -68 6 -14 11 -47 12
-75 3 -47 2 -49 -27 -58 -16 -6 -57 -20 -90 -33 -88 -34 -88 -34 -96 11 -3 22
-14 84 -23 138 -10 54 -15 105 -12 113 4 11 28 14 105 14 l100 0 11 -42z
m-319 -34 c4 -21 19 -109 33 -194 15 -85 31 -177 36 -205 4 -27 20 -120 35
-205 15 -85 31 -177 35 -205 4 -27 20 -117 35 -200 15 -82 31 -172 35 -200 4
-27 20 -117 34 -200 36 -198 42 -237 55 -320 13 -81 25 -146 61 -337 5 -29 21
-116 35 -193 14 -77 30 -162 35 -190 9 -43 23 -129 60 -350 4 -27 20 -120 35
-205 43 -240 43 -241 54 -313 6 -37 18 -107 27 -155 9 -48 20 -109 24 -137 4
-27 20 -120 35 -205 15 -85 30 -172 32 -193 6 -45 20 -53 68 -37 39 13 42 24
24 115 -5 28 -13 75 -18 105 -5 30 -21 123 -36 205 -15 83 -31 173 -35 200 -4
28 -15 89 -24 137 -9 48 -21 118 -27 155 -14 89 -22 138 -54 318 -15 83 -29
164 -31 180 -3 17 -9 53 -14 80 -9 44 -34 190 -61 350 -4 28 -20 118 -34 200
-14 83 -30 173 -35 200 -4 28 -20 118 -35 200 -36 200 -40 220 -64 360 -12 66
-26 143 -31 170 -6 28 -12 84 -13 125 l-2 75 78 47 c82 49 178 86 236 90 33 3
37 -1 125 -123 117 -162 260 -319 411 -451 62 -55 215 -167 265 -196 25 -14
73 -42 107 -64 34 -21 65 -38 69 -38 3 0 18 -8 32 -18 15 -10 59 -31 97 -47
39 -16 75 -32 80 -36 23 -15 269 -92 344 -107 19 -4 36 -12 38 -19 2 -6 -20
-29 -49 -51 -29 -22 -83 -70 -119 -108 -156 -164 -254 -344 -293 -543 -16 -77
-16 -89 -1 -154 25 -111 60 -173 145 -257 67 -66 141 -115 204 -134 16 -5 17
-9 5 -24 -69 -91 -86 -120 -102 -170 -52 -161 36 -416 175 -509 55 -37 113
-63 139 -63 37 0 34 -29 -8 -73 -38 -39 -103 -129 -103 -141 0 -3 -11 -29 -23
-58 -34 -76 -44 -111 -63 -222 -21 -124 -15 -448 11 -596 37 -214 41 -232 96
-430 6 -19 14 -51 19 -70 5 -19 32 -100 61 -180 28 -80 53 -154 56 -165 3 -11
9 -24 13 -30 3 -5 15 -32 25 -60 28 -78 75 -179 222 -485 111 -231 108 -225
119 -225 5 0 54 90 109 200 93 186 130 264 193 405 43 96 50 114 72 175 12 33
28 74 35 90 26 60 86 248 135 420 4 17 20 84 34 150 15 66 31 140 37 164 5 24
17 123 25 221 15 161 15 190 0 326 -8 82 -21 165 -27 184 -59 173 -105 257
-186 342 -38 39 -37 58 3 58 60 0 160 76 224 170 61 90 90 188 90 305 0 89 -3
103 -31 160 -17 35 -42 73 -55 86 -13 12 -24 26 -24 29 0 4 29 22 65 39 193
95 293 288 260 503 -23 155 -84 296 -192 447 -74 102 -144 180 -211 230 -34
27 -40 36 -31 47 6 8 21 14 33 14 54 1 305 81 424 136 41 19 75 34 77 34 2 0
31 16 65 36 61 35 88 38 71 6 -5 -9 -22 -53 -37 -97 -26 -75 -28 -91 -29 -240
0 -171 7 -207 61 -324 54 -117 171 -251 287 -330 27 -18 47 -34 45 -36 -148
-153 -448 -466 -516 -538 l-92 -97 0 -116 c0 -63 4 -124 10 -134 9 -17 49 -18
1027 -16 560 2 1163 1 1341 -1 286 -3 322 -5 322 -19 0 -25 -159 -244 -210
-289 -106 -94 -240 -236 -289 -305 -29 -41 -75 -120 -102 -174 -54 -108 -67
-128 -154 -226 -174 -196 -279 -300 -365 -363 -125 -93 -241 -210 -322 -327
-68 -97 -180 -212 -368 -377 -82 -72 -128 -104 -210 -144 -209 -103 -380 -242
-510 -414 -75 -100 -98 -122 -185 -186 -121 -89 -218 -149 -239 -149 -48 0
-247 -93 -349 -162 -93 -63 -194 -154 -259 -234 -34 -41 -68 -74 -77 -74 -31
0 -175 97 -286 192 -61 52 -131 108 -156 125 -45 31 -201 113 -214 113 -24 0
-151 78 -295 180 -155 110 -238 184 -304 273 -39 51 -194 183 -282 240 -39 26
-110 67 -158 91 -139 72 -495 389 -577 513 -91 137 -240 288 -367 370 -82 53
-399 390 -431 458 -30 65 -61 136 -61 141 0 3 -30 51 -67 107 -72 109 -200
246 -295 316 -90 65 -81 75 55 67 61 -3 333 -6 604 -7 362 0 495 -3 505 -12
16 -13 29 -63 54 -206 l17 -93 41 6 c23 4 44 10 48 14 9 9 -1 85 -37 287 -15
83 -31 173 -35 200 -37 208 -50 279 -69 370 -5 22 -21 108 -36 190 -40 219
-42 234 -54 305 -6 36 -18 103 -26 150 -9 47 -20 110 -25 140 -5 30 -21 120
-35 200 -15 80 -31 168 -35 195 -4 28 -13 77 -19 110 -12 61 -35 189 -50 280
-5 28 -21 118 -36 200 -15 83 -30 173 -35 200 -5 28 -21 118 -36 200 -14 83
-30 173 -34 200 -5 28 -20 115 -35 195 -15 80 -31 168 -35 195 -9 64 -48 259
-60 306 -16 60 -13 119 8 126 9 4 43 21 74 39 95 54 110 53 119 -2z m2422 -9
c57 -37 147 -55 273 -55 126 0 168 8 261 51 51 23 96 25 113 4 10 -12 10 -110
1 -471 -6 -250 -13 -460 -16 -465 -8 -13 -76 -1 -163 27 -250 82 -407 245
-487 507 -20 66 -26 114 -31 234 -9 187 -4 203 49 168z m5414 -47 c-4 -54 -27
-157 -65 -298 -5 -19 -38 -80 -74 -135 -86 -134 -159 -310 -174 -424 -9 -72
-16 -79 -56 -59 -89 42 -313 245 -375 340 -33 49 -28 62 69 164 85 89 244 215
408 324 63 42 140 92 170 112 30 20 66 37 79 37 23 1 23 -1 18 -61z m-8139
-118 c7 -36 16 -92 21 -125 5 -33 12 -71 15 -85 6 -22 0 -29 -54 -62 -33 -21
-62 -38 -65 -38 -2 0 -32 -18 -66 -40 -42 -27 -66 -37 -73 -30 -10 10 5 128
24 195 5 17 19 74 30 128 17 74 26 97 39 97 9 0 27 7 41 14 14 8 36 14 50 13
22 -2 26 -9 38 -67z m-268 -5 c0 -3 -12 -63 -26 -133 -15 -70 -30 -145 -34
-167 -4 -22 -20 -94 -35 -160 -15 -66 -30 -138 -35 -160 -4 -22 -20 -98 -35
-170 -15 -71 -31 -148 -35 -170 -4 -22 -20 -98 -35 -170 -15 -71 -31 -148 -35
-170 -4 -22 -20 -98 -35 -170 -14 -71 -30 -148 -34 -170 -5 -22 -18 -89 -30
-150 -12 -60 -25 -126 -31 -145 -8 -31 -59 -280 -80 -395 -4 -22 -20 -98 -35
-170 -15 -71 -31 -148 -35 -170 -39 -202 -52 -265 -60 -296 -6 -20 -10 -48
-10 -63 0 -33 -18 -69 -30 -61 -10 6 -40 64 -40 77 0 5 -19 48 -41 96 l-41 87
11 70 c6 38 22 122 36 185 14 63 30 135 35 160 37 173 64 291 80 350 9 31 35
151 60 275 7 37 51 239 71 330 7 34 27 124 69 320 5 22 20 96 35 165 15 69 30
141 35 160 12 54 61 280 70 325 4 22 20 94 35 160 15 66 31 140 36 165 20 106
35 145 60 157 23 12 139 18 139 8z m-275 -35 c3 -5 1 -17 -4 -27 -6 -10 -20
-65 -32 -123 -33 -163 -35 -172 -48 -217 -12 -44 -44 -83 -68 -83 -7 0 -29 -7
-50 -16 -21 -9 -49 -21 -63 -27 -14 -5 -34 -13 -45 -18 -11 -4 -47 -17 -80
-29 -33 -12 -73 -27 -90 -35 -16 -7 -64 -25 -105 -40 -41 -15 -84 -30 -95 -35
-18 -7 -88 -27 -155 -45 -293 -75 -343 -91 -458 -146 -45 -22 -87 -37 -92 -34
-6 3 -10 28 -10 54 0 60 -28 175 -75 305 -35 98 -37 136 -9 136 7 0 60 22 116
49 141 67 252 118 323 148 33 14 78 33 100 43 140 63 335 107 605 139 105 12
328 13 335 1z m1261 -67 c4 -10 12 -31 19 -48 6 -16 18 -46 25 -65 7 -19 17
-39 22 -44 4 -6 8 -15 8 -22 0 -7 16 -40 35 -74 38 -67 43 -90 21 -90 -24 0
-189 -72 -243 -107 -29 -18 -54 -30 -56 -25 -7 11 -35 132 -40 172 -3 19 -12
75 -21 124 -9 49 -14 96 -12 103 9 21 174 91 219 93 10 0 20 -8 23 -17z
m-3209 -159 c76 -37 160 -132 211 -239 76 -156 86 -189 113 -350 l20 -121 -20
-99 c-46 -223 -136 -243 -292 -65 -106 119 -166 269 -205 504 -16 102 -7 215
25 289 17 40 73 107 90 107 4 0 30 -12 58 -26z m10958 -17 c54 -57 70 -113 70
-247 0 -106 -21 -256 -36 -266 -5 -3 -9 -13 -9 -23 0 -19 -33 -98 -78 -188
-97 -193 -262 -310 -320 -225 -47 69 -56 104 -60 231 -5 142 6 213 51 346 33
97 116 244 171 303 52 55 131 110 160 112 5 0 28 -19 51 -43z m-8390 -149 c25
-106 20 -128 -35 -157 -25 -13 -72 -38 -105 -56 -101 -54 -159 -87 -187 -106
-14 -11 -34 -19 -43 -19 -15 0 -17 7 -11 53 13 97 27 145 49 167 28 29 300
200 308 194 4 -2 14 -36 24 -76z m-755 -203 c0 -41 -38 -184 -53 -204 -15 -18
-109 -63 -182 -85 -33 -10 -69 -22 -80 -26 -40 -15 -92 -29 -165 -45 -41 -10
-91 -21 -110 -26 -19 -4 -60 -13 -90 -19 -183 -38 -259 -75 -410 -201 -32 -27
-61 -49 -63 -49 -2 0 -12 19 -22 43 -68 164 -70 184 -17 219 61 41 143 83 202
103 30 10 64 21 75 25 22 9 69 21 165 45 120 29 295 83 354 109 17 8 76 30
131 51 139 51 228 87 239 96 16 14 26 -1 26 -36z m2655 -95 c3 -5 49 -35 100
-66 52 -31 95 -61 95 -66 0 -13 -29 -118 -40 -143 -8 -19 -47 -150 -56 -190
-16 -66 -41 -79 -84 -45 -14 11 -28 20 -32 20 -3 0 -39 20 -80 45 -40 25 -97
59 -125 76 -33 19 -53 38 -53 49 0 10 32 60 71 112 39 51 92 121 117 155 44
59 73 76 87 53z m5537 -7 c2 -5 38 -34 80 -67 43 -32 75 -62 73 -66 -3 -4 -33
-23 -67 -40 -156 -81 -338 -223 -420 -327 -118 -150 -176 -267 -237 -478 -42
-149 -52 -384 -26 -602 9 -69 14 -132 11 -140 -4 -10 -44 -13 -185 -13 -99 0
-186 3 -195 6 -14 5 -16 47 -16 360 l0 354 -24 15 c-13 9 -32 13 -42 9 -48
-16 -132 -56 -284 -133 -91 -47 -185 -94 -210 -105 -24 -12 -128 -63 -229
-113 -112 -56 -189 -89 -195 -83 -5 5 1 28 16 57 72 140 95 331 58 498 -25
113 -25 111 12 124 51 20 69 27 123 51 28 13 102 43 165 67 63 25 129 51 145
59 17 7 55 23 85 34 30 12 71 28 90 37 19 8 50 21 68 29 18 8 37 14 42 14 6 0
29 8 53 19 37 16 62 26 152 61 11 4 37 15 57 24 21 9 56 23 78 31 22 8 55 21
73 28 17 8 52 22 77 32 25 10 59 23 75 30 17 7 59 25 95 40 36 15 79 33 95 40
17 7 50 20 75 30 53 21 88 35 115 46 11 5 51 20 89 34 38 13 74 29 80 35 12
12 43 13 48 3z m-3373 -163 c67 -88 121 -163 121 -167 0 -13 -57 -53 -177
-123 -98 -57 -129 -71 -142 -63 -14 9 -42 83 -71 188 -4 17 -20 68 -34 114
-13 47 -23 88 -21 91 2 4 40 28 84 54 45 26 83 52 86 57 15 24 42 -3 154 -151z
m-4082 -45 c183 -357 177 -343 208 -535 8 -52 19 -113 25 -135 5 -22 11 -69
14 -104 5 -57 4 -62 -10 -50 -8 7 -47 76 -85 153 -39 78 -76 146 -82 153 -9 9
-37 -5 -120 -58 -60 -38 -111 -69 -114 -69 -3 0 -17 -9 -33 -20 -32 -23 -36
-19 -64 45 -9 22 -21 48 -26 57 -26 47 -14 63 98 131 59 37 112 71 119 77 7 5
16 10 21 10 18 0 30 23 21 39 -15 28 -156 324 -173 365 -26 61 -22 72 37 99
28 14 57 24 62 23 6 -1 51 -83 102 -181z m-252 -82 c38 -78 75 -155 81 -171
14 -36 8 -44 -71 -87 -27 -15 -61 -35 -76 -45 -14 -10 -30 -16 -36 -12 -6 4
-23 34 -38 67 -15 32 -37 71 -48 86 -21 30 -21 32 12 169 17 67 28 91 52 113
17 16 36 26 42 24 7 -2 43 -67 82 -144z m7985 21 c0 -51 -8 -90 -36 -168 -50
-138 -57 -151 -136 -234 -178 -188 -302 -461 -323 -712 -8 -86 -31 -163 -76
-246 -59 -109 -54 -105 -112 -102 -46 3 -53 6 -66 32 -7 15 -15 45 -17 65 -25
258 -27 317 -15 429 11 102 51 288 71 332 127 272 224 389 435 525 44 28 116
69 160 91 44 21 82 42 83 46 2 5 10 8 18 8 11 0 14 -16 14 -66z m-8549 -25
c-6 -13 -20 -71 -32 -129 -12 -58 -25 -121 -29 -140 -4 -19 -20 -91 -35 -160
-14 -69 -30 -141 -35 -160 -5 -19 -14 -55 -19 -80 -6 -25 -18 -76 -26 -115 -9
-38 -20 -88 -25 -110 -4 -22 -20 -94 -34 -160 -15 -66 -31 -140 -36 -165 -5
-25 -17 -76 -25 -115 -9 -38 -18 -83 -21 -100 -3 -16 -9 -46 -14 -65 -5 -19
-14 -61 -21 -92 -7 -32 -17 -58 -23 -58 -6 0 -44 37 -85 83 -100 113 -199 308
-212 418 -34 305 -114 513 -277 720 -70 89 -73 78 42 168 101 80 222 140 280
141 43 0 468 103 526 127 38 16 96 29 103 23 4 -4 3 -18 -2 -31z m3354 21 c22
-4 82 -16 133 -26 l92 -18 0 -208 0 -208 -62 0 c-35 0 -79 4 -98 9 -19 5 -62
14 -95 20 -104 21 -177 44 -182 59 -3 7 -1 23 4 35 6 12 15 38 21 57 6 19 23
76 37 125 15 50 36 110 47 134 16 37 22 42 41 36 12 -4 40 -10 62 -15z m915
-70 c102 -320 100 -307 45 -327 -22 -8 -62 -18 -90 -24 -27 -5 -84 -16 -125
-24 -41 -8 -96 -15 -122 -15 l-48 0 0 210 0 210 25 0 c14 0 46 5 72 11 74 17
114 26 158 37 22 5 44 9 49 8 5 -1 21 -40 36 -86z m1564 -60 c13 -13 9 -27
-35 -120 -105 -223 -123 -254 -152 -264 -53 -19 -78 1 -131 104 -26 52 -66
129 -87 171 -21 41 -39 80 -39 86 0 6 19 18 43 27 59 21 379 18 401 -4z m173
-86 c90 -68 209 -196 199 -213 -5 -8 -55 -33 -171 -86 -44 -20 -101 -47 -127
-61 -26 -13 -55 -24 -65 -24 -18 0 -63 37 -63 52 0 5 15 41 34 81 38 80 95
205 117 255 8 17 17 32 21 32 3 0 28 -16 55 -36z m-709 -6 c19 -24 172 -327
172 -341 0 -24 -36 -49 -62 -42 -28 8 -7 -2 -275 121 -40 18 -73 38 -73 44 0
23 56 96 122 162 69 67 96 80 116 56z m-4947 -139 c4 -8 22 -45 39 -84 18 -38
47 -101 65 -140 18 -38 44 -95 58 -125 34 -74 91 -199 134 -290 19 -41 48
-102 63 -135 15 -33 49 -104 74 -158 25 -54 46 -99 46 -101 0 -3 48 -103 106
-223 58 -120 109 -227 114 -238 34 -78 81 -180 111 -242 l36 -72 -73 -6 c-47
-5 -79 -4 -87 3 -12 11 -32 48 -62 117 -10 22 -46 99 -81 171 -35 73 -64 134
-64 137 0 4 -39 89 -131 285 -21 45 -39 84 -39 87 0 5 -33 79 -90 200 -54 114
-90 195 -90 199 0 5 -102 222 -151 321 -34 68 -39 88 -39 147 0 37 4 77 9 90
5 13 12 36 16 51 6 29 23 32 36 6z m-1581 -134 c151 -112 241 -264 310 -521
26 -95 27 -258 3 -324 -20 -56 -60 -100 -89 -100 -97 0 -282 200 -360 390 -15
36 -30 74 -35 85 -19 46 -59 241 -59 288 0 34 29 145 46 179 8 15 22 32 31 38
30 18 104 1 153 -35z m9985 35 c18 -7 34 -27 51 -65 68 -154 -9 -486 -161
-700 -81 -113 -205 -215 -263 -215 -50 0 -112 129 -112 235 0 79 46 274 85
360 8 17 18 42 24 57 19 50 118 193 167 241 79 79 151 109 209 87z m-2479
-147 c25 -107 9 -352 -26 -387 -11 -11 -304 132 -355 174 -19 16 -20 94 -1
113 14 13 57 35 276 139 41 20 79 33 84 28 4 -5 14 -34 22 -67z m-1185 27
c177 -78 278 -130 288 -149 23 -43 7 -67 -71 -110 -241 -132 -281 -151 -294
-138 -25 26 -34 86 -34 220 0 134 12 207 33 207 5 0 40 -14 78 -30z m-4161
-182 c45 -90 88 -169 94 -177 13 -17 -18 -43 -101 -85 -32 -17 -71 -38 -86
-49 -27 -19 -29 -19 -42 -1 -8 11 -15 25 -15 32 0 7 -4 20 -10 30 -5 9 -30 62
-56 117 -25 55 -53 114 -61 132 -8 18 -13 37 -11 43 5 15 169 119 189 119 10
1 43 -53 99 -161z m4763 133 c36 -14 78 -74 84 -118 9 -75 -89 -173 -159 -159
-68 13 -128 83 -128 148 0 98 106 166 203 129z m-1568 -141 c105 -51 277 -254
348 -411 135 -295 79 -469 -183 -577 -73 -30 -105 -32 -544 -32 l-451 0 -66
24 c-82 30 -99 39 -171 89 -73 51 -136 144 -144 214 -6 46 9 149 26 182 5 9
20 42 34 73 75 169 251 373 376 436 l64 33 331 -3 c328 -3 330 -3 380 -28z
m-3840 -46 c17 -33 41 -85 54 -115 14 -30 48 -103 76 -164 70 -149 69 -141 36
-165 -16 -11 -32 -20 -35 -20 -4 0 -24 -11 -46 -25 -60 -38 -74 -33 -104 30
-14 31 -26 59 -26 63 0 4 -13 34 -30 67 -33 68 -36 109 -14 205 8 36 17 83 20
105 14 105 24 108 69 19z m6900 -336 l-5 -303 -590 -3 c-363 -1 -590 1 -590 7
0 5 12 18 28 28 38 26 1137 571 1154 572 4 1 6 -135 3 -301z m-1738 220 c23
-22 30 -56 14 -73 -5 -6 -39 -69 -75 -142 -37 -72 -75 -142 -85 -154 l-19 -23
-57 48 c-57 49 -155 160 -155 175 0 14 19 26 165 101 77 40 144 76 150 81 15
15 37 10 62 -13z m656 -120 c65 -31 87 -46 87 -61 0 -22 -126 -151 -187 -192
-23 -15 -49 -25 -58 -21 -8 3 -28 34 -44 68 -16 35 -49 107 -75 160 -25 54
-46 105 -46 115 0 9 12 29 26 44 l25 27 92 -49 c51 -27 131 -68 180 -91z
m-440 30 c15 -12 96 -167 142 -273 9 -22 22 -50 27 -62 14 -30 5 -40 -44 -47
-141 -22 -252 -18 -358 12 -27 8 -39 44 -22 65 5 7 31 53 57 102 86 162 108
200 119 207 17 12 61 9 79 -4z m-4545 -30 c5 -7 12 -26 15 -43 32 -160 32
-154 11 -169 -10 -8 -30 -21 -44 -28 -14 -7 -47 -26 -75 -43 -78 -48 -81 -49
-100 -7 -10 20 -30 63 -46 95 -16 32 -29 59 -29 62 0 2 27 18 61 35 33 17 88
48 122 70 70 44 71 45 85 28z m-944 -273 c14 -31 26 -58 26 -60 0 -3 16 -39
35 -81 19 -41 35 -77 35 -80 0 -2 16 -38 35 -80 19 -41 35 -77 35 -79 0 -5 47
-109 91 -201 16 -34 29 -65 29 -68 0 -4 18 -45 40 -93 23 -48 39 -94 38 -102
-3 -12 -19 -17 -70 -19 -63 -3 -67 -1 -85 25 -11 15 -30 53 -42 83 -23 54 -39
93 -67 157 -8 17 -14 34 -14 37 0 3 -9 26 -20 51 -11 25 -29 65 -40 90 -11 25
-20 47 -20 49 0 3 -13 33 -29 68 -58 129 -64 151 -52 208 6 28 11 62 11 75 0
31 17 75 29 75 5 0 20 -25 35 -55z m402 -122 c24 -54 53 -115 64 -136 27 -53
25 -75 -7 -89 -16 -7 -52 -28 -81 -46 -59 -37 -77 -36 -92 5 -6 16 -14 37 -19
48 -5 11 -16 36 -24 55 -8 19 -27 61 -41 92 -14 31 -26 61 -26 65 0 5 26 24
58 43 31 18 66 39 77 46 11 7 26 13 33 13 7 1 33 -43 58 -96z m611 55 c4 -7
10 -35 14 -63 4 -27 19 -117 33 -200 15 -82 31 -175 36 -205 5 -30 16 -89 25
-130 8 -41 15 -90 15 -107 0 -53 -24 -40 -50 27 -8 19 -33 78 -58 130 -24 52
-49 109 -57 125 -36 84 -84 187 -117 254 -20 42 -34 79 -32 83 5 8 165 98 176
98 4 0 10 -6 15 -12z m6653 -179 c0 -6 -24 -39 -54 -72 -84 -97 -165 -233
-219 -368 l-15 -36 -383 -6 c-784 -14 -2319 -4 -2319 14 0 7 71 82 369 392
l85 87 1268 0 c913 0 1268 -3 1268 -11z m-8592 -79 c160 -81 327 -327 384
-570 30 -130 33 -193 13 -261 -21 -67 -56 -109 -92 -109 -37 0 -122 47 -189
106 -108 94 -224 288 -266 444 -54 200 -50 324 12 390 35 38 61 38 138 0z
m9009 6 c51 -43 66 -143 42 -286 -41 -253 -225 -542 -401 -631 -73 -37 -100
-37 -131 1 -27 32 -57 120 -57 168 0 35 43 235 60 277 63 155 136 270 236 371
114 115 195 147 251 100z m-8162 -117 c12 -36 30 -79 39 -96 28 -56 23 -69
-49 -109 -11 -6 -37 -21 -58 -32 -21 -12 -40 -22 -42 -22 -9 0 -5 41 9 103 8
34 20 87 26 117 15 72 30 112 42 108 6 -2 20 -33 33 -69z m652 -60 c36 -71 39
-116 9 -133 -11 -6 -44 -26 -72 -43 -29 -18 -60 -33 -68 -33 -9 0 -27 26 -44
63 -51 110 -54 100 40 161 46 30 88 54 93 52 6 -1 24 -31 42 -67z m3474 -200
c100 -34 133 -132 90 -268 -23 -73 -59 -136 -101 -176 l-31 -30 -412 -3 c-465
-3 -469 -3 -526 68 -55 69 -81 140 -81 225 0 106 32 153 130 188 31 11 896 7
931 -4z m-4005 -26 c4 -10 15 -38 26 -62 34 -75 33 -76 -140 -79 -83 -1 -152
1 -152 6 0 14 31 37 105 77 39 21 81 47 94 57 30 23 60 23 67 1z m656 -44 c43
-85 43 -85 -72 -92 -148 -9 -191 17 -112 66 110 69 138 85 147 83 5 -1 22 -27
37 -57z m6614 -73 c3 -8 -2 -28 -11 -44 l-17 -29 -331 -6 c-427 -9 -1803 -9
-2115 0 l-242 6 0 37 c0 20 3 40 7 43 3 4 613 7 1355 7 1168 0 1349 -2 1354
-14z m-6139 -148 c16 -32 36 -175 27 -189 -8 -14 -1268 -3 -1295 11 -26 14
-123 170 -113 180 9 9 188 13 1000 18 l371 2 10 -22z m-1421 -451 c189 -77
384 -268 476 -467 58 -125 68 -161 68 -243 0 -48 -4 -62 -24 -82 -31 -31 -71
-41 -111 -26 -17 6 -38 11 -47 11 -49 0 -200 104 -297 205 -159 165 -261 363
-261 504 0 66 1 70 35 100 20 17 46 31 58 31 12 0 59 -15 103 -33z m3969 8
c190 -69 264 -167 326 -435 17 -70 17 -342 0 -435 -29 -169 -64 -348 -72 -373
-4 -15 -15 -54 -24 -87 -22 -80 -93 -301 -112 -345 -20 -47 -29 -69 -43 -110
-29 -79 -86 -211 -176 -407 -33 -73 -58 -92 -70 -55 -7 20 -22 54 -63 145 -17
37 -31 70 -31 72 0 2 -12 30 -26 62 -38 83 -51 115 -59 143 -6 22 -19 55 -46
115 -5 11 -20 54 -34 95 -15 41 -30 84 -35 95 -10 21 -46 147 -60 205 -5 19
-18 73 -29 120 -64 266 -90 504 -72 667 34 310 123 458 321 534 73 28 218 25
305 -6z m3707 -15 c47 -50 49 -79 12 -198 -57 -190 -173 -357 -334 -485 -80
-64 -151 -101 -241 -124 -50 -12 -61 -12 -93 1 -24 10 -37 23 -42 41 -10 41 2
178 19 216 53 121 75 162 122 230 100 141 261 273 404 331 92 37 107 35 153
-12z m-6801 -1035 c90 -36 107 -45 169 -86 257 -171 462 -532 380 -666 -19
-32 -22 -33 -83 -33 -268 0 -667 414 -667 691 0 63 3 72 26 94 36 33 91 33
175 0z m5936 1 c25 -22 28 -31 28 -88 -1 -141 -104 -329 -266 -484 -133 -126
-281 -206 -395 -212 -68 -4 -72 -3 -94 24 -20 26 -22 37 -17 106 3 42 12 91
21 109 9 18 16 36 16 41 0 21 138 218 194 276 136 142 322 249 438 251 36 1
53 -5 75 -23z m-4897 -943 c233 -74 465 -274 565 -488 11 -23 19 -63 20 -94 0
-51 -2 -56 -34 -78 -84 -57 -278 -8 -486 123 -121 76 -273 250 -319 364 -33
83 -36 91 -36 110 0 31 47 78 83 83 49 7 157 -4 207 -20z m3893 16 c55 -15 71
-55 53 -130 -34 -138 -125 -259 -290 -383 -150 -113 -294 -174 -428 -183 -88
-6 -116 5 -143 57 -14 27 -14 35 3 87 35 104 67 154 172 266 140 148 346 269
488 287 85 11 103 11 145 -1z m-2837 -807 c5 -4 34 -16 64 -27 259 -88 550
-390 550 -570 0 -48 -3 -56 -29 -74 -43 -31 -152 -29 -254 4 -195 64 -402 224
-512 394 -25 39 -45 77 -45 84 0 7 -4 17 -9 23 -17 19 -30 97 -19 118 27 53
35 56 143 56 55 0 105 -4 111 -8z m1782 -8 c19 -13 22 -24 22 -79 0 -95 -48
-183 -168 -307 -184 -190 -391 -298 -571 -298 -72 0 -79 2 -104 28 -46 48 -29
129 56 264 92 146 309 316 477 373 30 11 59 23 65 27 5 4 52 8 105 8 70 0 101
-4 118 -16z"/>
<path d="M773 3820 c-12 -5 -29 -20 -39 -34 -20 -32 -15 -58 34 -151 36 -72
248 -496 431 -867 57 -114 101 -215 99 -225 -2 -14 -16 -19 -63 -24 -33 -4
-87 -12 -120 -18 -80 -16 -216 -40 -290 -51 -33 -6 -82 -14 -110 -19 -75 -15
-190 -35 -477 -84 -167 -29 -198 -41 -211 -80 -18 -55 5 -81 157 -182 200
-132 379 -238 571 -340 61 -32 139 -75 175 -94 83 -46 208 -106 345 -166 17
-7 51 -22 77 -34 26 -11 51 -21 54 -21 3 0 22 -7 42 -16 57 -25 71 -30 152
-59 41 -15 84 -31 95 -35 11 -5 45 -17 75 -26 30 -8 64 -19 75 -24 11 -4 38
-13 60 -18 38 -11 174 -51 240 -71 17 -5 64 -17 105 -26 41 -9 88 -21 104 -26
16 -5 44 -9 62 -9 29 0 39 8 73 53 56 75 138 151 196 180 102 51 103 52 234
51 125 0 127 -1 201 -37 139 -68 222 -148 284 -274 15 -32 32 -66 37 -75 5
-10 9 -26 9 -37 0 -10 9 -30 21 -45 17 -22 28 -26 70 -26 27 0 57 -4 67 -10
15 -9 118 -38 212 -60 19 -5 82 -20 140 -34 58 -15 123 -31 145 -36 113 -25
285 -63 320 -70 22 -5 72 -16 110 -24 39 -9 97 -21 130 -27 33 -6 80 -15 105
-19 98 -18 311 -52 440 -70 30 -5 89 -13 130 -20 103 -15 300 -41 385 -50 39
-4 113 -13 165 -19 139 -17 390 -42 505 -51 55 -5 183 -15 285 -24 267 -22
487 -36 720 -46 113 -5 306 -14 430 -20 311 -16 1898 -16 2180 0 118 6 307 16
420 20 217 8 591 33 775 51 61 6 162 15 225 19 63 5 219 21 345 35 127 15 264
30 305 35 41 4 161 20 265 35 105 15 215 31 245 35 69 10 164 25 283 46 50 9
112 20 137 24 165 29 272 50 375 76 24 6 223 51 280 64 52 11 223 54 300 75
142 38 171 47 190 55 11 5 36 11 56 15 47 7 64 26 49 55 -8 16 -7 33 7 78 58
191 196 327 377 373 60 15 215 6 275 -16 108 -39 203 -112 275 -209 50 -68 60
-76 90 -76 39 0 211 41 311 75 39 13 90 28 115 34 25 7 54 16 65 20 11 5 61
21 110 37 50 15 97 31 105 35 8 4 42 17 75 30 33 12 78 30 101 40 22 10 63 27
90 37 106 42 352 160 484 232 41 23 113 62 160 87 94 51 179 97 225 123 17 10
80 46 140 80 61 35 130 74 155 88 25 14 56 32 70 41 14 9 41 25 62 36 20 10
57 34 82 52 41 29 46 37 46 72 0 70 -24 79 -410 141 -54 9 -166 28 -285 50
-78 14 -140 25 -250 44 -49 8 -115 20 -145 26 -30 6 -84 13 -118 17 -41 4 -66
11 -69 20 -3 8 42 110 100 226 57 117 164 334 237 482 149 305 137 283 175
350 15 28 34 61 41 75 35 64 24 133 -23 151 -32 12 -88 -8 -143 -49 -57 -44
-332 -223 -442 -287 -105 -62 -381 -202 -478 -244 -30 -12 -73 -31 -95 -41
-22 -10 -101 -41 -175 -70 -74 -29 -144 -56 -155 -60 -109 -44 -441 -152 -540
-176 -11 -3 -30 -10 -41 -16 -18 -8 -32 -4 -81 24 -32 19 -88 46 -123 60 -62
25 -79 30 -180 60 -64 19 -280 16 -351 -4 -207 -59 -381 -195 -465 -363 -43
-85 -50 -91 -164 -120 -36 -9 -78 -20 -95 -25 -16 -5 -79 -20 -140 -35 -60
-14 -126 -30 -145 -35 -60 -15 -184 -43 -275 -60 -22 -4 -65 -13 -95 -19 -30
-7 -93 -19 -140 -27 -47 -9 -105 -19 -130 -24 -123 -23 -316 -54 -430 -70 -36
-5 -94 -14 -130 -19 -62 -10 -253 -34 -405 -51 -38 -4 -113 -13 -165 -19 -116
-14 -374 -39 -530 -51 -63 -5 -164 -14 -225 -20 -780 -76 -2699 -76 -3490 1
-66 6 -169 15 -230 19 -127 9 -390 35 -520 50 -49 6 -126 15 -170 20 -114 12
-318 38 -397 50 -271 40 -462 71 -568 90 -25 5 -83 15 -130 24 -47 8 -110 20
-140 27 -30 6 -73 15 -95 19 -107 21 -243 51 -315 70 -19 5 -64 16 -100 24
-36 9 -83 21 -105 27 -22 5 -56 14 -75 19 -85 21 -146 38 -162 45 -9 3 -29 32
-44 63 -98 203 -245 322 -484 390 -70 20 -264 22 -345 3 -107 -24 -248 -83
-344 -143 -15 -9 -26 -8 -54 5 -19 9 -41 17 -48 17 -20 0 -335 98 -384 119
-11 5 -42 16 -70 26 -50 17 -68 23 -115 43 -14 5 -47 18 -75 27 -27 10 -73 29
-102 42 -28 12 -54 23 -57 23 -4 0 -28 9 -54 21 -26 12 -56 25 -67 29 -11 5
-99 47 -195 94 -199 97 -498 272 -675 397 -111 78 -165 110 -183 108 -4 0 -17
-4 -29 -9z m15877 -393 c-7 -12 -56 -107 -107 -212 -52 -104 -99 -199 -105
-210 -43 -74 -240 -473 -249 -505 -21 -69 17 -104 131 -120 30 -4 123 -20 205
-35 83 -14 173 -30 200 -35 28 -4 118 -20 200 -35 83 -15 175 -31 205 -36 95
-15 190 -36 197 -43 10 -10 -24 -35 -122 -90 -44 -26 -98 -56 -120 -69 -51
-30 -126 -71 -195 -109 -30 -17 -77 -43 -105 -58 -115 -63 -577 -290 -590
-290 -3 0 -25 -9 -50 -20 -111 -49 -137 -60 -255 -100 -69 -23 -134 -46 -145
-50 -30 -12 -119 -38 -259 -74 -132 -35 -156 -34 -156 9 0 13 -4 34 -9 47 -6
13 -21 59 -34 103 -23 77 -35 117 -79 270 -11 39 -24 79 -28 90 -8 17 -24 73
-60 200 -36 128 -52 183 -60 200 -4 11 -16 47 -25 80 -40 143 -58 201 -65 220
-11 24 -50 168 -47 170 9 4 83 26 132 40 33 9 69 20 80 25 11 4 85 28 165 54
136 44 259 87 305 106 11 5 54 22 95 39 41 16 104 43 140 59 36 16 90 40 120
53 61 26 378 186 395 198 5 4 44 26 86 48 41 23 104 60 139 82 44 29 67 38 74
31 7 -7 6 -17 -4 -33z m-15481 -25 c122 -74 240 -138 411 -223 121 -60 159
-77 265 -124 17 -8 51 -23 76 -34 25 -11 70 -29 100 -41 30 -11 63 -25 74 -29
80 -36 482 -167 610 -200 75 -19 78 -26 54 -106 -11 -38 -24 -83 -29 -100 -4
-16 -20 -68 -35 -115 -15 -47 -31 -98 -35 -115 -17 -62 -52 -181 -60 -200 -7
-18 -60 -197 -80 -270 -4 -16 -20 -68 -35 -115 -15 -47 -31 -98 -35 -115 -23
-87 -53 -182 -61 -197 -5 -10 -9 -27 -9 -38 0 -12 -7 -34 -16 -51 -12 -24 -20
-29 -37 -24 -12 4 -35 11 -52 15 -16 5 -77 21 -135 36 -58 14 -130 34 -160 44
-30 10 -93 30 -140 44 -124 39 -248 85 -292 107 -10 5 -22 9 -27 9 -5 0 -42
15 -83 34 -40 18 -102 46 -138 62 -120 52 -556 276 -640 329 -19 12 -40 24
-45 26 -37 14 -265 166 -265 177 0 6 3 12 8 12 4 0 43 7 87 15 44 9 105 20
135 25 30 5 123 21 205 36 83 14 173 30 200 34 28 5 115 21 195 35 80 15 170
30 200 34 67 9 99 22 124 50 36 40 42 26 -322 747 -73 144 -132 267 -132 273
0 20 21 12 119 -47z m2395 -555 c133 -39 259 -139 317 -251 l33 -64 -26 -89
c-14 -48 -41 -137 -58 -198 -18 -60 -35 -119 -40 -130 -4 -11 -20 -65 -35
-120 -15 -55 -31 -109 -35 -120 -4 -11 -16 -47 -25 -80 -9 -33 -30 -103 -46
-155 -16 -52 -36 -120 -45 -150 -9 -30 -20 -64 -24 -75 -5 -11 -18 -53 -30
-92 -12 -40 -25 -73 -30 -73 -5 0 -28 25 -50 55 -68 92 -197 183 -330 232 -70
26 -86 28 -225 28 -153 0 -167 -2 -278 -49 -34 -15 -38 -15 -43 -1 -4 8 -2 21
4 28 6 6 18 41 27 77 9 36 25 92 36 125 10 33 31 101 45 150 59 199 76 256
119 390 51 159 91 292 107 350 27 102 72 142 210 188 40 14 87 29 103 35 46
16 250 9 319 -11z m10909 3 c112 -30 182 -58 233 -96 31 -23 47 -57 79 -169 9
-33 37 -125 62 -205 25 -80 56 -179 69 -220 12 -41 33 -109 45 -150 12 -41 27
-93 34 -115 7 -22 23 -74 35 -115 12 -41 28 -93 35 -115 24 -77 39 -145 33
-151 -4 -3 -21 1 -40 9 -79 34 -96 40 -148 53 -74 18 -240 17 -319 -1 -144
-34 -285 -133 -388 -271 -18 -23 -24 -26 -32 -15 -9 14 -41 113 -82 251 -12
41 -27 93 -34 115 -7 22 -23 74 -35 115 -13 41 -33 109 -46 150 -13 41 -24 80
-24 87 0 7 -4 21 -9 31 -5 9 -17 44 -26 77 -31 113 -106 350 -115 367 -16 28
-12 52 17 104 98 180 273 282 486 283 67 1 120 -5 170 -19z m-10333 -469 c19
-5 73 -19 120 -30 81 -20 104 -26 195 -50 43 -11 135 -31 230 -51 33 -7 71
-16 85 -20 14 -5 41 -11 60 -14 19 -3 73 -12 120 -22 180 -35 247 -47 380 -69
116 -19 188 -32 260 -45 59 -11 229 -36 350 -50 41 -5 111 -14 155 -20 122
-16 348 -40 465 -50 58 -5 152 -13 210 -19 144 -15 507 -40 730 -51 102 -5
286 -14 410 -21 298 -15 1615 -15 1900 1 118 6 298 15 400 20 225 10 589 35
725 50 55 6 147 15 205 19 120 10 262 25 435 48 66 9 152 19 190 23 84 9 267
35 350 51 33 6 83 15 110 19 106 17 242 40 295 50 86 17 138 27 235 44 50 9
110 21 135 27 48 11 71 16 225 49 55 11 114 25 130 30 17 5 80 21 140 35 61
15 119 30 130 35 24 10 71 21 103 23 28 2 20 21 122 -313 13 -41 56 -176 96
-299 41 -123 74 -230 74 -237 0 -8 4 -22 9 -32 5 -9 19 -51 31 -92 13 -41 38
-122 56 -179 19 -58 34 -109 34 -115 0 -6 6 -23 14 -38 20 -39 2 -51 -124 -82
-58 -15 -118 -31 -135 -35 -16 -5 -82 -21 -145 -36 -63 -14 -128 -30 -145 -35
-32 -10 -211 -47 -285 -60 -25 -5 -108 -20 -185 -34 -77 -15 -167 -31 -200
-36 -33 -6 -87 -15 -120 -20 -61 -10 -216 -33 -335 -50 -36 -5 -94 -14 -130
-19 -92 -15 -291 -41 -385 -51 -44 -5 -125 -14 -180 -19 -180 -20 -428 -42
-555 -51 -69 -5 -186 -14 -260 -20 -1030 -83 -2866 -82 -3922 1 -79 6 -197 14
-263 19 -141 9 -442 36 -570 51 -49 6 -130 14 -180 19 -49 5 -175 21 -280 36
-104 14 -217 30 -250 34 -53 8 -308 47 -450 70 -136 22 -274 47 -390 70 -22 4
-76 15 -120 23 -44 9 -102 21 -130 27 -27 6 -68 15 -90 20 -147 32 -508 124
-548 139 -23 9 -27 15 -22 32 9 29 45 147 55 184 5 17 21 71 35 120 15 50 30
104 35 120 4 17 20 68 35 115 15 47 30 96 32 110 3 14 9 30 13 35 3 6 15 39
25 75 10 36 22 69 27 74 4 6 8 20 8 32 0 13 5 26 10 29 6 3 10 14 10 24 0 9
15 64 34 122 18 57 46 144 61 192 31 97 22 92 105 68z"/>
<path d="M4212 1845 c-7 -14 -12 -37 -12 -50 0 -14 -9 -57 -19 -97 -44 -169
-53 -220 -41 -232 18 -18 223 -56 238 -44 6 6 12 14 12 18 0 11 -48 30 -78 30
-15 0 -45 7 -67 14 -51 18 -51 5 15 274 12 52 13 102 1 102 -5 0 -16 2 -23 5
-9 4 -19 -4 -26 -20z"/>
<path d="M13335 1844 c-11 -3 -38 -17 -60 -32 -38 -27 -40 -30 -43 -88 -2 -53
0 -64 22 -87 23 -25 31 -27 107 -27 46 0 98 -5 116 -12 29 -11 33 -16 33 -49
0 -32 -5 -40 -36 -58 -42 -25 -119 -28 -148 -6 -30 23 -66 19 -66 -6 0 -32 80
-63 145 -56 148 15 223 131 144 222 l-31 35 -94 0 c-82 0 -97 3 -115 21 -11
11 -18 27 -15 36 3 8 6 19 6 24 0 24 73 41 142 34 72 -7 82 -1 48 30 -21 19
-110 29 -155 19z"/>
<path d="M13075 1780 c-4 -6 -2 -16 3 -23 5 -7 12 -34 15 -62 4 -27 11 -70 16
-95 20 -86 23 -154 9 -173 -17 -23 -92 -41 -117 -28 -25 14 -47 50 -53 86 -3
17 -13 66 -21 110 -9 44 -17 96 -19 115 -3 30 -7 35 -28 35 -22 0 -25 -5 -28
-37 -2 -21 2 -63 9 -95 6 -32 15 -78 19 -103 19 -108 49 -155 106 -166 52 -10
127 13 164 49 31 30 32 34 26 92 -7 75 -19 144 -39 215 -8 30 -13 58 -11 62 3
4 -4 12 -15 17 -24 14 -28 14 -36 1z"/>
<path d="M4632 1768 c-7 -7 -12 -16 -12 -20 0 -4 -16 -32 -35 -62 -19 -30 -35
-57 -35 -60 0 -3 -16 -30 -35 -60 -19 -30 -35 -58 -35 -61 0 -4 -13 -26 -30
-50 -16 -24 -30 -46 -30 -49 0 -3 12 -6 28 -6 20 0 31 8 43 33 15 30 19 32 70
31 57 -1 125 -16 140 -31 5 -5 13 -29 17 -54 7 -40 10 -44 40 -47 37 -4 37 -5
17 68 -8 30 -15 73 -15 96 0 22 -4 65 -10 95 -5 30 -12 76 -15 102 -4 28 -15
57 -26 68 -21 21 -59 25 -77 7z m57 -200 l1 -68 -32 0 c-32 0 -108 17 -108 25
0 6 70 127 92 158 l23 31 11 -39 c7 -22 13 -70 13 -107z"/>
<path d="M4941 1706 c-8 -10 -15 -45 -41 -186 -5 -25 -16 -80 -25 -124 -9 -43
-13 -82 -8 -87 12 -12 219 -42 246 -35 13 3 34 15 48 27 20 17 24 30 24 74 0
36 -5 59 -17 72 -20 21 -24 53 -8 53 25 0 50 41 50 81 0 33 -6 47 -30 69 -16
15 -44 30 -62 33 -18 3 -63 12 -101 20 -48 10 -70 11 -76 3z m144 -67 c65 -17
84 -63 46 -110 -17 -21 -22 -22 -87 -13 l-69 9 -3 36 c-2 19 2 47 7 62 12 30
38 34 106 16z m14 -198 c35 -32 39 -56 15 -89 -13 -19 -24 -22 -88 -22 -78 0
-98 10 -91 46 2 10 7 36 10 57 l6 37 58 0 c51 0 63 -4 90 -29z"/>
<path d="M12485 1665 c-45 -14 -46 -17 -27 -130 6 -33 19 -111 28 -173 l18
-113 61 7 c95 10 187 40 218 72 47 49 33 108 -38 152 -38 23 -44 40 -20 60 24
20 19 92 -8 118 -20 19 -34 22 -108 21 -46 -1 -102 -7 -124 -14z m183 -41 c42
-29 16 -107 -41 -118 -87 -18 -86 -18 -102 21 -29 69 -29 79 2 91 60 24 113
26 141 6z m39 -186 c18 -18 33 -39 33 -48 0 -33 -68 -72 -144 -82 -21 -3 -35
18 -56 84 -14 47 -8 58 33 58 18 0 39 5 47 10 27 17 53 11 87 -22z"/>
<path d="M5430 1616 c-64 -14 -124 -76 -139 -145 -31 -147 10 -236 125 -269
70 -20 147 17 195 94 25 41 35 145 20 202 -24 86 -110 137 -201 118z m111 -75
c26 -26 29 -36 29 -91 0 -137 -36 -195 -122 -195 -42 0 -53 4 -74 28 -21 24
-24 38 -24 104 0 63 4 83 25 119 31 52 48 63 98 64 29 0 45 -7 68 -29z"/>
<path d="M12115 1591 c-43 -26 -61 -50 -79 -101 -26 -75 -16 -146 31 -223 76
-122 250 -96 311 46 33 78 -8 215 -81 271 -43 33 -135 36 -182 7z m126 -37
c44 -22 79 -106 79 -186 0 -57 -2 -63 -36 -94 -51 -48 -101 -48 -142 2 -35 43
-52 94 -52 162 0 65 14 95 53 115 41 20 61 21 98 1z"/>
<path d="M5756 1548 c-4 -13 -11 -59 -16 -103 -5 -44 -16 -116 -23 -160 -19
-120 -18 -130 18 -130 l30 0 10 85 c11 94 5 89 92 74 37 -6 44 -11 59 -48 10
-22 20 -63 23 -91 6 -48 7 -50 39 -53 39 -4 40 2 15 106 -17 72 -17 74 2 85
63 35 86 97 58 155 -27 56 -60 68 -259 97 -37 6 -42 4 -48 -17z m155 -48 c60
-11 89 -37 89 -78 0 -47 -25 -62 -105 -62 -40 0 -76 5 -82 11 -11 11 -9 90 3
127 4 15 24 15 95 2z"/>
<path d="M11640 1531 c-35 -6 -35 -6 -34 -56 3 -91 37 -335 50 -357 7 -11 51
-11 58 0 3 5 1 33 -5 63 -18 92 -17 114 6 115 11 1 40 5 65 8 l45 7 34 -58
c19 -32 40 -68 48 -80 18 -30 63 -32 63 -3 0 11 -10 37 -23 58 -52 86 -53 88
-28 133 27 48 24 106 -7 148 -18 25 -23 26 -128 27 -60 1 -125 -1 -144 -5z
m210 -51 c24 -24 27 -82 5 -100 -22 -18 -146 -43 -158 -31 -5 5 -15 34 -22 65
-15 65 -10 72 50 79 89 9 105 7 125 -13z"/>
<path d="M11252 1476 c-53 -10 -54 -10 -48 -40 3 -17 13 -103 22 -191 9 -88
19 -167 24 -175 4 -8 18 -15 31 -15 24 0 24 2 24 90 l0 89 40 8 c22 4 56 11
75 14 107 20 145 134 68 206 -28 26 -35 28 -107 26 -42 0 -100 -6 -129 -12z
m198 -55 c11 -22 13 -61 4 -86 -9 -22 -68 -45 -119 -45 -42 0 -43 1 -54 44
-24 98 -20 102 96 105 52 1 64 -2 73 -18z"/>
<path d="M6369 1421 c-27 -27 -49 -57 -49 -69 0 -11 -4 -24 -10 -27 -16 -10
-12 -118 6 -161 31 -76 84 -114 159 -114 62 0 119 31 152 83 24 38 27 51 28
137 0 102 -10 130 -64 177 -22 19 -38 22 -100 23 l-74 0 -48 -49z m171 -4 c38
-19 63 -82 56 -137 -12 -95 -19 -116 -49 -147 -25 -27 -38 -33 -73 -33 -37 0
-47 5 -73 37 -28 34 -31 44 -31 108 0 143 76 219 170 172z"/>
<path d="M11020 1451 c-37 -6 -60 -37 -60 -78 0 -28 -19 -112 -31 -135 -5 -10
-9 -29 -9 -43 0 -16 -6 -25 -15 -25 -8 0 -15 4 -15 9 0 5 -15 42 -34 83 -18
40 -39 89 -46 108 -20 52 -29 60 -67 60 -67 0 -69 -4 -61 -139 3 -67 12 -160
19 -206 11 -69 16 -85 31 -85 9 0 19 3 21 8 3 4 -1 77 -9 162 -23 265 -18 270
61 69 14 -35 30 -73 35 -84 4 -11 18 -46 31 -77 24 -62 55 -79 63 -35 2 12 14
72 26 132 12 61 25 128 29 150 9 52 27 86 35 65 9 -25 27 -169 33 -262 5 -76
8 -88 25 -94 12 -4 26 0 35 9 14 13 14 27 4 109 -7 51 -18 140 -24 198 -13
114 -12 113 -77 101z"/>
<path d="M6776 1431 c-3 -4 -10 -54 -16 -112 -32 -313 -32 -313 11 -302 17 5
19 15 19 92 0 47 4 102 9 121 5 19 12 61 16 93 10 86 44 72 45 -19 0 -17 4
-44 9 -60 5 -16 17 -72 26 -124 10 -52 23 -98 29 -102 21 -14 36 -8 42 20 4
15 12 38 19 52 7 14 20 41 28 60 8 19 25 58 37 85 13 28 30 67 39 87 9 21 20
38 24 38 5 0 5 -51 1 -112 -4 -62 -8 -147 -8 -188 -1 -72 0 -75 23 -78 34 -5
41 12 41 103 0 44 5 132 10 195 5 63 8 115 7 116 -1 2 -26 6 -55 10 -45 6 -52
4 -58 -12 -8 -25 -30 -74 -71 -161 -48 -103 -61 -107 -74 -25 -4 26 -14 86
-24 135 -16 83 -18 87 -44 88 -14 0 -38 2 -53 4 -15 2 -30 0 -32 -4z"/>
<path d="M7313 1388 c-10 -17 -22 -124 -29 -280 l-6 -128 26 0 c26 0 26 1 26
72 0 76 20 238 30 238 3 0 34 -59 69 -132 89 -185 106 -210 139 -206 32 4 34
16 51 258 8 122 8 147 -5 160 -8 9 -17 11 -22 5 -11 -12 -32 -183 -32 -256 0
-71 -13 -57 -86 89 -84 168 -100 192 -129 192 -13 0 -27 -6 -32 -12z"/>
<path d="M10504 1288 c5 -92 22 -295 25 -305 1 -2 15 -3 32 -3 l32 0 -7 63
c-6 55 -24 295 -25 340 -1 12 -9 17 -32 17 l-32 0 7 -112z"/>
<path d="M10051 1369 c-46 -4 -85 -10 -88 -13 -14 -14 14 -26 61 -26 l53 0 8
-102 c4 -57 10 -141 14 -188 l6 -85 34 -3 34 -3 -7 58 c-3 32 -9 118 -12 191
l-7 132 42 0 c49 0 81 14 81 35 0 17 -73 18 -219 4z"/>
<path d="M7740 1368 c-1 -2 -3 -50 -6 -108 -3 -58 -9 -150 -13 -205 -5 -55 -4
-104 0 -109 4 -5 19 -6 32 -2 24 6 25 10 31 98 3 51 7 145 8 208 l3 115 -27 3
c-16 2 -28 2 -28 0z"/>
<path d="M9843 1361 c-10 -7 0 -392 11 -409 9 -14 42 -16 51 -3 3 5 2 99 -1
209 -7 198 -7 200 -30 205 -12 2 -26 1 -31 -2z"/>
<path d="M8000 1328 c-11 -18 -20 -40 -20 -48 0 -9 -4 -20 -9 -25 -4 -6 -21
-44 -36 -85 -15 -41 -33 -90 -41 -107 -8 -18 -21 -51 -29 -73 -13 -36 -13 -42
0 -47 19 -7 45 14 45 36 0 10 9 27 20 39 18 19 27 21 107 15 49 -3 93 -10 100
-15 6 -5 14 -27 18 -49 6 -35 10 -39 36 -39 34 0 37 17 15 77 -8 21 -26 79
-40 128 -15 50 -31 100 -37 113 -5 13 -9 34 -9 47 0 34 -34 65 -70 65 -23 0
-35 -7 -50 -32z m62 -76 c9 -21 21 -58 28 -82 7 -25 16 -50 22 -57 5 -7 7 -17
3 -23 -8 -12 -124 -13 -144 -1 -15 10 -13 16 24 106 6 17 18 45 25 63 7 17 15
32 19 32 3 0 14 -17 23 -38z"/>
<path d="M9552 1353 c-13 -2 -40 -21 -60 -41 -74 -75 -81 -229 -15 -320 36
-49 76 -65 146 -60 55 4 63 8 98 46 44 46 53 92 19 92 -10 0 -25 -10 -31 -22
-26 -52 -51 -68 -100 -68 -41 0 -50 4 -67 28 -28 40 -42 89 -42 147 0 74 23
123 65 141 52 21 65 18 112 -31 40 -42 83 -59 83 -34 0 21 -41 78 -70 99 -29
21 -97 32 -138 23z"/>
<path d="M8444 1337 c-3 -8 1 -34 9 -58 8 -24 19 -62 25 -84 6 -22 22 -76 35
-120 14 -44 27 -92 31 -107 8 -35 32 -58 61 -58 20 0 27 11 49 68 14 37 26 73
26 80 0 7 4 20 10 30 5 9 21 55 35 102 14 47 31 95 37 108 13 25 -1 48 -24 40
-7 -3 -35 -70 -62 -149 -65 -194 -74 -202 -101 -101 -9 31 -20 66 -25 77 -13
32 -40 126 -40 140 0 15 -32 45 -49 45 -6 0 -14 -6 -17 -13z"/>
<path d="M9297 1343 c-4 -3 -7 -71 -7 -150 0 -79 -4 -143 -9 -143 -8 0 -91
122 -91 134 0 3 -20 37 -45 75 -35 54 -52 71 -75 76 -55 12 -57 5 -56 -217 l1
-203 24 0 24 0 1 154 c1 94 5 155 11 157 6 2 51 -62 100 -142 89 -142 123
-181 151 -170 11 4 14 43 14 215 0 181 -2 210 -16 215 -19 7 -19 7 -27 -1z"/>
<path d="M8840 1120 l0 -210 30 0 30 0 0 210 0 210 -30 0 -30 0 0 -210z"/>
</g>
</svg>
